<?xml version="1.0" encoding="utf-8"?>
<!-- Generator: Adobe Illustrator 18.0.0, SVG Export Plug-In . SVG Version: 6.00 Build 0)  -->
<!DOCTYPE svg PUBLIC "-//W3C//DTD SVG 1.1//EN" "http://www.w3.org/Graphics/SVG/1.1/DTD/svg11.dtd">
<svg version="1.1" id="Layer_1" xmlns="http://www.w3.org/2000/svg" xmlns:xlink="http://www.w3.org/1999/xlink" x="0px" y="0px"
	 viewBox="0 0 1100.5 552.3" enable-background="new 0 0 1100.5 552.3" xml:space="preserve">
<rect x="0" y="-1" fill="#2E7D32" width="1101.3" height="552"/>
<path fill="#2C2E2A" d="M577.8,548.8c-0.7-0.2,0-536.3,0-549.4c0-0.2-12.2-1.4-24.2-1.4c-11.4,0-22.8,0.6-22.8,0.6
	c-0.2-0.1-0.3,550.1-0.1,550.4s22.5,1,23.5,1C555.6,550,578.5,549,577.8,548.8z"/>
<path d="M553.9,493.6"/>
<path d="M553.9,493.6"/>
<path opacity="0.69" d="M50.6,552.7h554.7l86.5-92.5c0.5-0.7-24.5,20.3-35.4,23.7c-19.3,6-62.8,9.3-104.3,9.7
	c-41.5-0.4-83.5-3.7-102.8-9.7c-34.7-10.8-58.7-43.3-44.7-90.4c14-47.1,39.3-27.1,48.8-83.1c9.5-56.1-21.8-90-0.3-125.5
	c8.1-13.3,28.6-17.7,55-19.2c-0.2-33.2,112.2,25.1,75-95.7c-2.7-8.6-71.2-0.6-66.4-6.7l0.3,0"/>
<path fill="none" stroke="#000000" stroke-width="0.5" stroke-linecap="round" stroke-linejoin="round" d="M553.9,493.6"/>
<line fill="none" stroke="#000000" stroke-width="0.5" stroke-linecap="round" stroke-linejoin="round" x1="553.3" y1="164.3" x2="553.5" y2="164.5"/>
<g opacity="0.7">
	<rect x="546.4" y="1.7" width="15.7" height="544.1"/>
	<g>
		<g>
			<g>
				<g>
					<g>
						<polygon fill="none" points="538.9,526.3 538.9,538.3 553.9,538.3 553.9,526.3 						"/>
					</g>
					<g>
						<rect x="547.4" y="527.3" fill-rule="evenodd" clip-rule="evenodd" fill="#1D1D1B" width="2.5" height="9.9"/>
						<rect x="542.9" y="527.3" fill-rule="evenodd" clip-rule="evenodd" fill="#1D1D1B" width="2.5" height="9.9"/>
					</g>
				</g>
			</g>
			<g>
				<g>
					<g>
						<polygon fill="none" points="538.9,514.3 538.9,526.3 553.9,526.3 553.9,514.3 						"/>
					</g>
					<g>
						<rect x="547.4" y="515.3" fill-rule="evenodd" clip-rule="evenodd" fill="#1D1D1B" width="2.5" height="9.9"/>
						<rect x="542.9" y="515.3" fill-rule="evenodd" clip-rule="evenodd" fill="#1D1D1B" width="2.5" height="9.9"/>
					</g>
				</g>
			</g>
			<g>
				<g>
					<g>
						<polygon fill="none" points="538.9,502.2 538.9,514.3 553.9,514.3 553.9,502.2 						"/>
					</g>
					<g>
						<rect x="547.4" y="503.2" fill-rule="evenodd" clip-rule="evenodd" fill="#1D1D1B" width="2.5" height="9.9"/>
						<rect x="542.9" y="503.2" fill-rule="evenodd" clip-rule="evenodd" fill="#1D1D1B" width="2.5" height="9.9"/>
					</g>
				</g>
			</g>
			<g>
				<g>
					<g>
						<polygon fill="none" points="538.9,490.2 538.9,502.2 553.9,502.2 553.9,490.2 						"/>
					</g>
					<g>
						<rect x="547.4" y="491.2" fill-rule="evenodd" clip-rule="evenodd" fill="#1D1D1B" width="2.5" height="9.9"/>
						<rect x="542.9" y="491.2" fill-rule="evenodd" clip-rule="evenodd" fill="#1D1D1B" width="2.5" height="9.9"/>
					</g>
				</g>
			</g>
			<g>
				<g>
					<g>
						<polygon fill="none" points="538.9,478.2 538.9,490.2 553.9,490.2 553.9,478.2 						"/>
					</g>
					<g>
						<rect x="547.4" y="479.2" fill-rule="evenodd" clip-rule="evenodd" fill="#1D1D1B" width="2.5" height="9.9"/>
						<rect x="542.9" y="479.2" fill-rule="evenodd" clip-rule="evenodd" fill="#1D1D1B" width="2.5" height="9.9"/>
					</g>
				</g>
			</g>
			<g>
				<g>
					<g>
						<polygon fill="none" points="538.9,466.2 538.9,478.2 553.9,478.2 553.9,466.2 						"/>
					</g>
					<g>
						<rect x="547.4" y="467.2" fill-rule="evenodd" clip-rule="evenodd" fill="#1D1D1B" width="2.5" height="9.9"/>
						<rect x="542.9" y="467.2" fill-rule="evenodd" clip-rule="evenodd" fill="#1D1D1B" width="2.5" height="9.9"/>
					</g>
				</g>
			</g>
			<g>
				<g>
					<g>
						<polygon fill="none" points="538.9,454.1 538.9,466.2 553.9,466.2 553.9,454.1 						"/>
					</g>
					<g>
						<rect x="547.4" y="455.1" fill-rule="evenodd" clip-rule="evenodd" fill="#1D1D1B" width="2.5" height="9.9"/>
						<rect x="542.9" y="455.1" fill-rule="evenodd" clip-rule="evenodd" fill="#1D1D1B" width="2.5" height="9.9"/>
					</g>
				</g>
			</g>
			<g>
				<g>
					<g>
						<polygon fill="none" points="538.9,442.1 538.9,454.1 553.9,454.1 553.9,442.1 						"/>
					</g>
					<g>
						<rect x="547.4" y="443.1" fill-rule="evenodd" clip-rule="evenodd" fill="#1D1D1B" width="2.5" height="9.9"/>
						<rect x="542.9" y="443.1" fill-rule="evenodd" clip-rule="evenodd" fill="#1D1D1B" width="2.5" height="9.9"/>
					</g>
				</g>
			</g>
			<g>
				<g>
					<g>
						<polygon fill="none" points="538.9,430.1 538.9,442.1 553.9,442.1 553.9,430.1 						"/>
					</g>
					<g>
						<rect x="547.4" y="431.1" fill-rule="evenodd" clip-rule="evenodd" fill="#1D1D1B" width="2.5" height="9.9"/>
						<rect x="542.9" y="431.1" fill-rule="evenodd" clip-rule="evenodd" fill="#1D1D1B" width="2.5" height="9.9"/>
					</g>
				</g>
			</g>
			<g>
				<g>
					<g>
						<polygon fill="none" points="538.9,418.1 538.9,430.1 553.9,430.1 553.9,418.1 						"/>
					</g>
					<g>
						<rect x="547.4" y="419.1" fill-rule="evenodd" clip-rule="evenodd" fill="#1D1D1B" width="2.5" height="9.9"/>
						<rect x="542.9" y="419.1" fill-rule="evenodd" clip-rule="evenodd" fill="#1D1D1B" width="2.5" height="9.9"/>
					</g>
				</g>
			</g>
			<g>
				<g>
					<g>
						<polygon fill="none" points="538.9,406 538.9,418.1 553.9,418.1 553.9,406 						"/>
					</g>
					<g>
						<rect x="547.4" y="407" fill-rule="evenodd" clip-rule="evenodd" fill="#1D1D1B" width="2.5" height="9.9"/>
						<rect x="542.9" y="407" fill-rule="evenodd" clip-rule="evenodd" fill="#1D1D1B" width="2.5" height="9.9"/>
					</g>
				</g>
			</g>
			<g>
				<g>
					<g>
						<polygon fill="none" points="538.9,394 538.9,406 553.9,406 553.9,394 						"/>
					</g>
					<g>
						<rect x="547.4" y="395" fill-rule="evenodd" clip-rule="evenodd" fill="#1D1D1B" width="2.5" height="9.9"/>
						<rect x="542.9" y="395" fill-rule="evenodd" clip-rule="evenodd" fill="#1D1D1B" width="2.5" height="9.9"/>
					</g>
				</g>
			</g>
			<g>
				<g>
					<g>
						<polygon fill="none" points="538.9,382 538.9,394 553.9,394 553.9,382 						"/>
					</g>
					<g>
						<rect x="547.4" y="383" fill-rule="evenodd" clip-rule="evenodd" fill="#1D1D1B" width="2.5" height="9.9"/>
						<rect x="542.9" y="383" fill-rule="evenodd" clip-rule="evenodd" fill="#1D1D1B" width="2.5" height="9.9"/>
					</g>
				</g>
			</g>
			<g>
				<g>
					<g>
						<polygon fill="none" points="538.9,370 538.9,382 553.9,382 553.9,370 						"/>
					</g>
					<g>
						<rect x="547.4" y="371" fill-rule="evenodd" clip-rule="evenodd" fill="#1D1D1B" width="2.5" height="9.9"/>
						<rect x="542.9" y="371" fill-rule="evenodd" clip-rule="evenodd" fill="#1D1D1B" width="2.5" height="9.9"/>
					</g>
				</g>
			</g>
			<g>
				<g>
					<g>
						<polygon fill="none" points="538.9,357.9 538.9,370 553.9,370 553.9,357.9 						"/>
					</g>
					<g>
						<rect x="547.4" y="358.9" fill-rule="evenodd" clip-rule="evenodd" fill="#1D1D1B" width="2.5" height="9.9"/>
						<rect x="542.9" y="358.9" fill-rule="evenodd" clip-rule="evenodd" fill="#1D1D1B" width="2.5" height="9.9"/>
					</g>
				</g>
			</g>
			<g>
				<g>
					<g>
						<polygon fill="none" points="538.9,345.9 538.9,357.9 553.9,357.9 553.9,345.9 						"/>
					</g>
					<g>
						<rect x="547.4" y="346.9" fill-rule="evenodd" clip-rule="evenodd" fill="#1D1D1B" width="2.5" height="9.9"/>
						<rect x="542.9" y="346.9" fill-rule="evenodd" clip-rule="evenodd" fill="#1D1D1B" width="2.5" height="9.9"/>
					</g>
				</g>
			</g>
			<g>
				<g>
					<g>
						<polygon fill="none" points="538.9,333.9 538.9,345.9 553.9,345.9 553.9,333.9 						"/>
					</g>
					<g>
						<rect x="547.4" y="334.9" fill-rule="evenodd" clip-rule="evenodd" fill="#1D1D1B" width="2.5" height="9.9"/>
						<rect x="542.9" y="334.9" fill-rule="evenodd" clip-rule="evenodd" fill="#1D1D1B" width="2.5" height="9.9"/>
					</g>
				</g>
			</g>
			<g>
				<g>
					<g>
						<polygon fill="none" points="538.9,321.9 538.9,333.9 553.9,333.9 553.9,321.9 						"/>
					</g>
					<g>
						<rect x="547.4" y="322.9" fill-rule="evenodd" clip-rule="evenodd" fill="#1D1D1B" width="2.5" height="9.9"/>
						<rect x="542.9" y="322.9" fill-rule="evenodd" clip-rule="evenodd" fill="#1D1D1B" width="2.5" height="9.9"/>
					</g>
				</g>
			</g>
			<g>
				<g>
					<g>
						<polygon fill="none" points="538.9,309.8 538.9,321.9 553.9,321.9 553.9,309.8 						"/>
					</g>
					<g>
						<rect x="547.4" y="310.8" fill-rule="evenodd" clip-rule="evenodd" fill="#1D1D1B" width="2.5" height="9.9"/>
						<rect x="542.9" y="310.8" fill-rule="evenodd" clip-rule="evenodd" fill="#1D1D1B" width="2.5" height="9.9"/>
					</g>
				</g>
			</g>
			<g>
				<g>
					<g>
						<polygon fill="none" points="538.9,297.8 538.9,309.8 553.9,309.8 553.9,297.8 						"/>
					</g>
					<g>
						<rect x="547.4" y="298.8" fill-rule="evenodd" clip-rule="evenodd" fill="#1D1D1B" width="2.5" height="9.9"/>
						<rect x="542.9" y="298.8" fill-rule="evenodd" clip-rule="evenodd" fill="#1D1D1B" width="2.5" height="9.9"/>
					</g>
				</g>
			</g>
			<g>
				<g>
					<g>
						<polygon fill="none" points="538.9,285.8 538.9,297.8 553.9,297.8 553.9,285.8 						"/>
					</g>
					<g>
						<rect x="547.4" y="286.8" fill-rule="evenodd" clip-rule="evenodd" fill="#1D1D1B" width="2.5" height="9.9"/>
						<rect x="542.9" y="286.8" fill-rule="evenodd" clip-rule="evenodd" fill="#1D1D1B" width="2.5" height="9.9"/>
					</g>
				</g>
			</g>
			<g>
				<g>
					<g>
						<polygon fill="none" points="538.9,273.8 538.9,285.8 553.9,285.8 553.9,273.8 						"/>
					</g>
					<g>
						<rect x="547.4" y="274.8" fill-rule="evenodd" clip-rule="evenodd" fill="#1D1D1B" width="2.5" height="9.9"/>
						<rect x="542.9" y="274.8" fill-rule="evenodd" clip-rule="evenodd" fill="#1D1D1B" width="2.5" height="9.9"/>
					</g>
				</g>
			</g>
			<g>
				<g>
					<g>
						<polygon fill="none" points="538.9,261.7 538.9,273.8 553.9,273.8 553.9,261.7 						"/>
					</g>
					<g>
						<rect x="547.4" y="262.7" fill-rule="evenodd" clip-rule="evenodd" fill="#1D1D1B" width="2.5" height="9.9"/>
						<rect x="542.9" y="262.7" fill-rule="evenodd" clip-rule="evenodd" fill="#1D1D1B" width="2.5" height="9.9"/>
					</g>
				</g>
			</g>
			<g>
				<g>
					<g>
						<polygon fill="none" points="538.9,249.7 538.9,261.7 553.9,261.7 553.9,249.7 						"/>
					</g>
					<g>
						<rect x="547.4" y="250.7" fill-rule="evenodd" clip-rule="evenodd" fill="#1D1D1B" width="2.5" height="9.9"/>
						<rect x="542.9" y="250.7" fill-rule="evenodd" clip-rule="evenodd" fill="#1D1D1B" width="2.5" height="9.9"/>
					</g>
				</g>
			</g>
			<g>
				<g>
					<g>
						<polygon fill="none" points="538.9,237.7 538.9,249.7 553.9,249.7 553.9,237.7 						"/>
					</g>
					<g>
						<rect x="547.4" y="238.7" fill-rule="evenodd" clip-rule="evenodd" fill="#1D1D1B" width="2.5" height="9.9"/>
						<rect x="542.9" y="238.7" fill-rule="evenodd" clip-rule="evenodd" fill="#1D1D1B" width="2.5" height="9.9"/>
					</g>
				</g>
			</g>
			<g>
				<g>
					<g>
						<polygon fill="none" points="538.9,225.7 538.9,237.7 553.9,237.7 553.9,225.7 						"/>
					</g>
					<g>
						<rect x="547.4" y="226.7" fill-rule="evenodd" clip-rule="evenodd" fill="#1D1D1B" width="2.5" height="9.9"/>
						<rect x="542.9" y="226.7" fill-rule="evenodd" clip-rule="evenodd" fill="#1D1D1B" width="2.5" height="9.9"/>
					</g>
				</g>
			</g>
			<g>
				<g>
					<g>
						<polygon fill="none" points="538.9,213.6 538.9,225.7 553.9,225.7 553.9,213.6 						"/>
					</g>
					<g>
						<rect x="547.4" y="214.6" fill-rule="evenodd" clip-rule="evenodd" fill="#1D1D1B" width="2.5" height="9.9"/>
						<rect x="542.9" y="214.6" fill-rule="evenodd" clip-rule="evenodd" fill="#1D1D1B" width="2.5" height="9.9"/>
					</g>
				</g>
			</g>
			<g>
				<g>
					<g>
						<polygon fill="none" points="538.9,201.6 538.9,213.6 553.9,213.6 553.9,201.6 						"/>
					</g>
					<g>
						<rect x="547.4" y="202.6" fill-rule="evenodd" clip-rule="evenodd" fill="#1D1D1B" width="2.5" height="9.9"/>
						<rect x="542.9" y="202.6" fill-rule="evenodd" clip-rule="evenodd" fill="#1D1D1B" width="2.5" height="9.9"/>
					</g>
				</g>
			</g>
			<g>
				<g>
					<g>
						<polygon fill="none" points="538.9,189.6 538.9,201.6 553.9,201.6 553.9,189.6 						"/>
					</g>
					<g>
						<rect x="547.4" y="190.6" fill-rule="evenodd" clip-rule="evenodd" fill="#1D1D1B" width="2.5" height="9.9"/>
						<rect x="542.9" y="190.6" fill-rule="evenodd" clip-rule="evenodd" fill="#1D1D1B" width="2.5" height="9.9"/>
					</g>
				</g>
			</g>
			<g>
				<g>
					<g>
						<polygon fill="none" points="538.9,177.6 538.9,189.6 553.9,189.6 553.9,177.6 						"/>
					</g>
					<g>
						<rect x="547.4" y="178.6" fill-rule="evenodd" clip-rule="evenodd" fill="#1D1D1B" width="2.5" height="9.9"/>
						<rect x="542.9" y="178.6" fill-rule="evenodd" clip-rule="evenodd" fill="#1D1D1B" width="2.5" height="9.9"/>
					</g>
				</g>
			</g>
			<g>
				<g>
					<g>
						<polygon fill="none" points="538.9,165.5 538.9,177.6 553.9,177.6 553.9,165.5 						"/>
					</g>
					<g>
						<rect x="547.4" y="166.5" fill-rule="evenodd" clip-rule="evenodd" fill="#1D1D1B" width="2.5" height="9.9"/>
						<rect x="542.9" y="166.5" fill-rule="evenodd" clip-rule="evenodd" fill="#1D1D1B" width="2.5" height="9.9"/>
					</g>
				</g>
			</g>
			<g>
				<g>
					<g>
						<polygon fill="none" points="538.9,153.5 538.9,165.5 553.9,165.5 553.9,153.5 						"/>
					</g>
					<g>
						<rect x="547.4" y="154.5" fill-rule="evenodd" clip-rule="evenodd" fill="#1D1D1B" width="2.5" height="9.9"/>
						<rect x="542.9" y="154.5" fill-rule="evenodd" clip-rule="evenodd" fill="#1D1D1B" width="2.5" height="9.9"/>
					</g>
				</g>
			</g>
			<g>
				<g>
					<g>
						<polygon fill="none" points="538.9,141.5 538.9,153.5 553.9,153.5 553.9,141.5 						"/>
					</g>
					<g>
						<rect x="547.4" y="142.5" fill-rule="evenodd" clip-rule="evenodd" fill="#1D1D1B" width="2.5" height="9.9"/>
						<rect x="542.9" y="142.5" fill-rule="evenodd" clip-rule="evenodd" fill="#1D1D1B" width="2.5" height="9.9"/>
					</g>
				</g>
			</g>
			<g>
				<g>
					<g>
						<polygon fill="none" points="538.9,129.5 538.9,141.5 553.9,141.5 553.9,129.5 						"/>
					</g>
					<g>
						<rect x="547.4" y="130.5" fill-rule="evenodd" clip-rule="evenodd" fill="#1D1D1B" width="2.5" height="9.9"/>
						<rect x="542.9" y="130.5" fill-rule="evenodd" clip-rule="evenodd" fill="#1D1D1B" width="2.5" height="9.9"/>
					</g>
				</g>
			</g>
			<g>
				<g>
					<g>
						<polygon fill="none" points="538.9,117.4 538.9,129.5 553.9,129.5 553.9,117.4 						"/>
					</g>
					<g>
						<rect x="547.4" y="118.4" fill-rule="evenodd" clip-rule="evenodd" fill="#1D1D1B" width="2.5" height="9.9"/>
						<rect x="542.9" y="118.4" fill-rule="evenodd" clip-rule="evenodd" fill="#1D1D1B" width="2.5" height="9.9"/>
					</g>
				</g>
			</g>
			<g>
				<g>
					<g>
						<polygon fill="none" points="538.9,105.4 538.9,117.4 553.9,117.4 553.9,105.4 						"/>
					</g>
					<g>
						<rect x="547.4" y="106.4" fill-rule="evenodd" clip-rule="evenodd" fill="#1D1D1B" width="2.5" height="9.9"/>
						<rect x="542.9" y="106.4" fill-rule="evenodd" clip-rule="evenodd" fill="#1D1D1B" width="2.5" height="9.9"/>
					</g>
				</g>
			</g>
			<g>
				<g>
					<g>
						<polygon fill="none" points="538.9,93.4 538.9,105.4 553.9,105.4 553.9,93.4 						"/>
					</g>
					<g>
						<rect x="547.4" y="94.4" fill-rule="evenodd" clip-rule="evenodd" fill="#1D1D1B" width="2.5" height="9.9"/>
						<rect x="542.9" y="94.4" fill-rule="evenodd" clip-rule="evenodd" fill="#1D1D1B" width="2.5" height="9.9"/>
					</g>
				</g>
			</g>
			<g>
				<g>
					<g>
						<polygon fill="none" points="538.9,81.4 538.9,93.4 553.9,93.4 553.9,81.4 						"/>
					</g>
					<g>
						<rect x="547.4" y="82.4" fill-rule="evenodd" clip-rule="evenodd" fill="#1D1D1B" width="2.5" height="9.9"/>
						<rect x="542.9" y="82.4" fill-rule="evenodd" clip-rule="evenodd" fill="#1D1D1B" width="2.5" height="9.9"/>
					</g>
				</g>
			</g>
			<g>
				<g>
					<g>
						<polygon fill="none" points="538.9,69.3 538.9,81.4 553.9,81.4 553.9,69.3 						"/>
					</g>
					<g>
						<rect x="547.4" y="70.3" fill-rule="evenodd" clip-rule="evenodd" fill="#1D1D1B" width="2.5" height="9.9"/>
						<rect x="542.9" y="70.3" fill-rule="evenodd" clip-rule="evenodd" fill="#1D1D1B" width="2.5" height="9.9"/>
					</g>
				</g>
			</g>
			<g>
				<g>
					<g>
						<polygon fill="none" points="538.9,57.3 538.9,69.3 553.9,69.3 553.9,57.3 						"/>
					</g>
					<g>
						<rect x="547.4" y="58.3" fill-rule="evenodd" clip-rule="evenodd" fill="#1D1D1B" width="2.5" height="9.9"/>
						<rect x="542.9" y="58.3" fill-rule="evenodd" clip-rule="evenodd" fill="#1D1D1B" width="2.5" height="9.9"/>
					</g>
				</g>
			</g>
			<g>
				<g>
					<g>
						<polygon fill="none" points="538.9,45.3 538.9,57.3 553.9,57.3 553.9,45.3 						"/>
					</g>
					<g>
						<rect x="547.4" y="46.3" fill-rule="evenodd" clip-rule="evenodd" fill="#1D1D1B" width="2.5" height="9.9"/>
						<rect x="542.9" y="46.3" fill-rule="evenodd" clip-rule="evenodd" fill="#1D1D1B" width="2.5" height="9.9"/>
					</g>
				</g>
			</g>
			<g>
				<g>
					<g>
						<polygon fill="none" points="538.9,33.3 538.9,45.3 553.9,45.3 553.9,33.3 						"/>
					</g>
					<g>
						<rect x="547.4" y="34.3" fill-rule="evenodd" clip-rule="evenodd" fill="#1D1D1B" width="2.5" height="9.9"/>
						<rect x="542.9" y="34.3" fill-rule="evenodd" clip-rule="evenodd" fill="#1D1D1B" width="2.5" height="9.9"/>
					</g>
				</g>
			</g>
			<g>
				<g>
					<g>
						<polygon fill="none" points="538.9,21.2 538.9,33.3 553.9,33.3 553.9,21.2 						"/>
					</g>
					<g>
						<rect x="547.4" y="22.2" fill-rule="evenodd" clip-rule="evenodd" fill="#1D1D1B" width="2.5" height="9.9"/>
						<rect x="542.9" y="22.2" fill-rule="evenodd" clip-rule="evenodd" fill="#1D1D1B" width="2.5" height="9.9"/>
					</g>
				</g>
			</g>
			<g>
				<g>
					<g>
						<polygon fill="none" points="538.9,9.2 538.9,21.2 553.9,21.2 553.9,9.2 						"/>
					</g>
					<g>
						<rect x="547.4" y="10.2" fill-rule="evenodd" clip-rule="evenodd" fill="#1D1D1B" width="2.5" height="9.9"/>
						<rect x="542.9" y="10.2" fill-rule="evenodd" clip-rule="evenodd" fill="#1D1D1B" width="2.5" height="9.9"/>
					</g>
				</g>
			</g>
			<g>
				<g>
					<g>
						<polygon fill="none" points="554.6,-5.8 553.9,-5.8 553.9,9.2 554.6,9.2 						"/>
					</g>
					<g>
						<rect x="553.9" y="2.7" fill-rule="evenodd" clip-rule="evenodd" fill="#1D1D1B" width="0.6" height="2.5"/>
						<rect x="553.9" y="-1.8" fill-rule="evenodd" clip-rule="evenodd" fill="#1D1D1B" width="0.6" height="2.5"/>
					</g>
				</g>
			</g>
			<g>
				<g>
					<g>
						<polygon fill="none" points="569.6,21.2 569.6,9.2 554.6,9.2 554.6,21.2 						"/>
					</g>
					<g>
						<rect x="558.5" y="10.3" fill-rule="evenodd" clip-rule="evenodd" fill="#1D1D1B" width="2.5" height="9.9"/>
						<rect x="563" y="10.3" fill-rule="evenodd" clip-rule="evenodd" fill="#1D1D1B" width="2.5" height="9.9"/>
					</g>
				</g>
			</g>
			<g>
				<g>
					<g>
						<polygon fill="none" points="569.6,33.3 569.6,21.2 554.6,21.2 554.6,33.3 						"/>
					</g>
					<g>
						<rect x="558.5" y="22.3" fill-rule="evenodd" clip-rule="evenodd" fill="#1D1D1B" width="2.5" height="9.9"/>
						<rect x="563" y="22.3" fill-rule="evenodd" clip-rule="evenodd" fill="#1D1D1B" width="2.5" height="9.9"/>
					</g>
				</g>
			</g>
			<g>
				<g>
					<g>
						<polygon fill="none" points="569.6,45.3 569.6,33.3 554.6,33.3 554.6,45.3 						"/>
					</g>
					<g>
						<rect x="558.5" y="34.3" fill-rule="evenodd" clip-rule="evenodd" fill="#1D1D1B" width="2.5" height="9.9"/>
						<rect x="563" y="34.3" fill-rule="evenodd" clip-rule="evenodd" fill="#1D1D1B" width="2.5" height="9.9"/>
					</g>
				</g>
			</g>
			<g>
				<g>
					<g>
						<polygon fill="none" points="569.6,57.3 569.6,45.3 554.6,45.3 554.6,57.3 						"/>
					</g>
					<g>
						<rect x="558.5" y="46.3" fill-rule="evenodd" clip-rule="evenodd" fill="#1D1D1B" width="2.5" height="9.9"/>
						<rect x="563" y="46.3" fill-rule="evenodd" clip-rule="evenodd" fill="#1D1D1B" width="2.5" height="9.9"/>
					</g>
				</g>
			</g>
			<g>
				<g>
					<g>
						<polygon fill="none" points="569.6,69.3 569.6,57.3 554.6,57.3 554.6,69.3 						"/>
					</g>
					<g>
						<rect x="558.5" y="58.4" fill-rule="evenodd" clip-rule="evenodd" fill="#1D1D1B" width="2.5" height="9.9"/>
						<rect x="563" y="58.4" fill-rule="evenodd" clip-rule="evenodd" fill="#1D1D1B" width="2.5" height="9.9"/>
					</g>
				</g>
			</g>
			<g>
				<g>
					<g>
						<polygon fill="none" points="569.6,81.4 569.6,69.3 554.6,69.3 554.6,81.4 						"/>
					</g>
					<g>
						<rect x="558.5" y="70.4" fill-rule="evenodd" clip-rule="evenodd" fill="#1D1D1B" width="2.5" height="9.9"/>
						<rect x="563" y="70.4" fill-rule="evenodd" clip-rule="evenodd" fill="#1D1D1B" width="2.5" height="9.9"/>
					</g>
				</g>
			</g>
			<g>
				<g>
					<g>
						<polygon fill="none" points="569.6,93.4 569.6,81.4 554.6,81.4 554.6,93.4 						"/>
					</g>
					<g>
						<rect x="558.5" y="82.4" fill-rule="evenodd" clip-rule="evenodd" fill="#1D1D1B" width="2.5" height="9.9"/>
						<rect x="563" y="82.4" fill-rule="evenodd" clip-rule="evenodd" fill="#1D1D1B" width="2.5" height="9.9"/>
					</g>
				</g>
			</g>
			<g>
				<g>
					<g>
						<polygon fill="none" points="569.6,105.4 569.6,93.4 554.6,93.4 554.6,105.4 						"/>
					</g>
					<g>
						<rect x="558.5" y="94.4" fill-rule="evenodd" clip-rule="evenodd" fill="#1D1D1B" width="2.5" height="9.9"/>
						<rect x="563" y="94.4" fill-rule="evenodd" clip-rule="evenodd" fill="#1D1D1B" width="2.5" height="9.9"/>
					</g>
				</g>
			</g>
			<g>
				<g>
					<g>
						<polygon fill="none" points="569.6,117.4 569.6,105.4 554.6,105.4 554.6,117.4 						"/>
					</g>
					<g>
						<rect x="558.5" y="106.5" fill-rule="evenodd" clip-rule="evenodd" fill="#1D1D1B" width="2.5" height="9.9"/>
						<rect x="563" y="106.5" fill-rule="evenodd" clip-rule="evenodd" fill="#1D1D1B" width="2.5" height="9.9"/>
					</g>
				</g>
			</g>
			<g>
				<g>
					<g>
						<polygon fill="none" points="569.6,129.5 569.6,117.4 554.6,117.4 554.6,129.5 						"/>
					</g>
					<g>
						<rect x="558.5" y="118.5" fill-rule="evenodd" clip-rule="evenodd" fill="#1D1D1B" width="2.5" height="9.9"/>
						<rect x="563" y="118.5" fill-rule="evenodd" clip-rule="evenodd" fill="#1D1D1B" width="2.5" height="9.9"/>
					</g>
				</g>
			</g>
			<g>
				<g>
					<g>
						<polygon fill="none" points="569.6,141.5 569.6,129.5 554.6,129.5 554.6,141.5 						"/>
					</g>
					<g>
						<rect x="558.5" y="130.5" fill-rule="evenodd" clip-rule="evenodd" fill="#1D1D1B" width="2.5" height="9.9"/>
						<rect x="563" y="130.5" fill-rule="evenodd" clip-rule="evenodd" fill="#1D1D1B" width="2.5" height="9.9"/>
					</g>
				</g>
			</g>
			<g>
				<g>
					<g>
						<polygon fill="none" points="569.6,153.5 569.6,141.5 554.6,141.5 554.6,153.5 						"/>
					</g>
					<g>
						<rect x="558.5" y="142.5" fill-rule="evenodd" clip-rule="evenodd" fill="#1D1D1B" width="2.5" height="9.9"/>
						<rect x="563" y="142.5" fill-rule="evenodd" clip-rule="evenodd" fill="#1D1D1B" width="2.5" height="9.9"/>
					</g>
				</g>
			</g>
			<g>
				<g>
					<g>
						<polygon fill="none" points="569.6,165.5 569.6,153.5 554.6,153.5 554.6,165.5 						"/>
					</g>
					<g>
						<rect x="558.5" y="154.6" fill-rule="evenodd" clip-rule="evenodd" fill="#1D1D1B" width="2.5" height="9.9"/>
						<rect x="563" y="154.6" fill-rule="evenodd" clip-rule="evenodd" fill="#1D1D1B" width="2.5" height="9.9"/>
					</g>
				</g>
			</g>
			<g>
				<g>
					<g>
						<polygon fill="none" points="569.6,177.6 569.6,165.5 554.6,165.5 554.6,177.6 						"/>
					</g>
					<g>
						<rect x="558.5" y="166.6" fill-rule="evenodd" clip-rule="evenodd" fill="#1D1D1B" width="2.5" height="9.9"/>
						<rect x="563" y="166.6" fill-rule="evenodd" clip-rule="evenodd" fill="#1D1D1B" width="2.5" height="9.9"/>
					</g>
				</g>
			</g>
			<g>
				<g>
					<g>
						<polygon fill="none" points="569.6,189.6 569.6,177.6 554.6,177.6 554.6,189.6 						"/>
					</g>
					<g>
						<rect x="558.5" y="178.6" fill-rule="evenodd" clip-rule="evenodd" fill="#1D1D1B" width="2.5" height="9.9"/>
						<rect x="563" y="178.6" fill-rule="evenodd" clip-rule="evenodd" fill="#1D1D1B" width="2.5" height="9.9"/>
					</g>
				</g>
			</g>
			<g>
				<g>
					<g>
						<polygon fill="none" points="569.6,201.6 569.6,189.6 554.6,189.6 554.6,201.6 						"/>
					</g>
					<g>
						<rect x="558.5" y="190.6" fill-rule="evenodd" clip-rule="evenodd" fill="#1D1D1B" width="2.5" height="9.9"/>
						<rect x="563" y="190.6" fill-rule="evenodd" clip-rule="evenodd" fill="#1D1D1B" width="2.5" height="9.9"/>
					</g>
				</g>
			</g>
			<g>
				<g>
					<g>
						<polygon fill="none" points="569.6,213.6 569.6,201.6 554.6,201.6 554.6,213.6 						"/>
					</g>
					<g>
						<rect x="558.5" y="202.7" fill-rule="evenodd" clip-rule="evenodd" fill="#1D1D1B" width="2.5" height="9.9"/>
						<rect x="563" y="202.7" fill-rule="evenodd" clip-rule="evenodd" fill="#1D1D1B" width="2.5" height="9.9"/>
					</g>
				</g>
			</g>
			<g>
				<g>
					<g>
						<polygon fill="none" points="569.6,225.7 569.6,213.6 554.6,213.6 554.6,225.7 						"/>
					</g>
					<g>
						<rect x="558.5" y="214.7" fill-rule="evenodd" clip-rule="evenodd" fill="#1D1D1B" width="2.5" height="9.9"/>
						<rect x="563" y="214.7" fill-rule="evenodd" clip-rule="evenodd" fill="#1D1D1B" width="2.5" height="9.9"/>
					</g>
				</g>
			</g>
			<g>
				<g>
					<g>
						<polygon fill="none" points="569.6,237.7 569.6,225.7 554.6,225.7 554.6,237.7 						"/>
					</g>
					<g>
						<rect x="558.5" y="226.7" fill-rule="evenodd" clip-rule="evenodd" fill="#1D1D1B" width="2.5" height="9.9"/>
						<rect x="563" y="226.7" fill-rule="evenodd" clip-rule="evenodd" fill="#1D1D1B" width="2.5" height="9.9"/>
					</g>
				</g>
			</g>
			<g>
				<g>
					<g>
						<polygon fill="none" points="569.6,249.7 569.6,237.7 554.6,237.7 554.6,249.7 						"/>
					</g>
					<g>
						<rect x="558.5" y="238.7" fill-rule="evenodd" clip-rule="evenodd" fill="#1D1D1B" width="2.5" height="9.9"/>
						<rect x="563" y="238.7" fill-rule="evenodd" clip-rule="evenodd" fill="#1D1D1B" width="2.5" height="9.9"/>
					</g>
				</g>
			</g>
			<g>
				<g>
					<g>
						<polygon fill="none" points="569.6,261.7 569.6,249.7 554.6,249.7 554.6,261.7 						"/>
					</g>
					<g>
						<rect x="558.5" y="250.8" fill-rule="evenodd" clip-rule="evenodd" fill="#1D1D1B" width="2.5" height="9.9"/>
						<rect x="563" y="250.8" fill-rule="evenodd" clip-rule="evenodd" fill="#1D1D1B" width="2.5" height="9.9"/>
					</g>
				</g>
			</g>
			<g>
				<g>
					<g>
						<polygon fill="none" points="569.6,273.8 569.6,261.7 554.6,261.7 554.6,273.8 						"/>
					</g>
					<g>
						<rect x="558.5" y="262.8" fill-rule="evenodd" clip-rule="evenodd" fill="#1D1D1B" width="2.5" height="9.9"/>
						<rect x="563" y="262.8" fill-rule="evenodd" clip-rule="evenodd" fill="#1D1D1B" width="2.5" height="9.9"/>
					</g>
				</g>
			</g>
			<g>
				<g>
					<g>
						<polygon fill="none" points="569.6,285.8 569.6,273.8 554.6,273.8 554.6,285.8 						"/>
					</g>
					<g>
						<rect x="558.5" y="274.8" fill-rule="evenodd" clip-rule="evenodd" fill="#1D1D1B" width="2.5" height="9.9"/>
						<rect x="563" y="274.8" fill-rule="evenodd" clip-rule="evenodd" fill="#1D1D1B" width="2.5" height="9.9"/>
					</g>
				</g>
			</g>
			<g>
				<g>
					<g>
						<polygon fill="none" points="569.6,297.8 569.6,285.8 554.6,285.8 554.6,297.8 						"/>
					</g>
					<g>
						<rect x="558.5" y="286.8" fill-rule="evenodd" clip-rule="evenodd" fill="#1D1D1B" width="2.5" height="9.9"/>
						<rect x="563" y="286.8" fill-rule="evenodd" clip-rule="evenodd" fill="#1D1D1B" width="2.5" height="9.9"/>
					</g>
				</g>
			</g>
			<g>
				<g>
					<g>
						<polygon fill="none" points="569.6,309.8 569.6,297.8 554.6,297.8 554.6,309.8 						"/>
					</g>
					<g>
						<rect x="558.5" y="298.9" fill-rule="evenodd" clip-rule="evenodd" fill="#1D1D1B" width="2.5" height="9.9"/>
						<rect x="563" y="298.9" fill-rule="evenodd" clip-rule="evenodd" fill="#1D1D1B" width="2.5" height="9.9"/>
					</g>
				</g>
			</g>
			<g>
				<g>
					<g>
						<polygon fill="none" points="569.6,321.9 569.6,309.8 554.6,309.8 554.6,321.9 						"/>
					</g>
					<g>
						<rect x="558.5" y="310.9" fill-rule="evenodd" clip-rule="evenodd" fill="#1D1D1B" width="2.5" height="9.9"/>
						<rect x="563" y="310.9" fill-rule="evenodd" clip-rule="evenodd" fill="#1D1D1B" width="2.5" height="9.9"/>
					</g>
				</g>
			</g>
			<g>
				<g>
					<g>
						<polygon fill="none" points="569.6,333.9 569.6,321.9 554.6,321.9 554.6,333.9 						"/>
					</g>
					<g>
						<rect x="558.5" y="322.9" fill-rule="evenodd" clip-rule="evenodd" fill="#1D1D1B" width="2.5" height="9.9"/>
						<rect x="563" y="322.9" fill-rule="evenodd" clip-rule="evenodd" fill="#1D1D1B" width="2.5" height="9.9"/>
					</g>
				</g>
			</g>
			<g>
				<g>
					<g>
						<polygon fill="none" points="569.6,345.9 569.6,333.9 554.6,333.9 554.6,345.9 						"/>
					</g>
					<g>
						<rect x="558.5" y="334.9" fill-rule="evenodd" clip-rule="evenodd" fill="#1D1D1B" width="2.5" height="9.9"/>
						<rect x="563" y="334.9" fill-rule="evenodd" clip-rule="evenodd" fill="#1D1D1B" width="2.5" height="9.9"/>
					</g>
				</g>
			</g>
			<g>
				<g>
					<g>
						<polygon fill="none" points="569.6,357.9 569.6,345.9 554.6,345.9 554.6,357.9 						"/>
					</g>
					<g>
						<rect x="558.5" y="347" fill-rule="evenodd" clip-rule="evenodd" fill="#1D1D1B" width="2.5" height="9.9"/>
						<rect x="563" y="347" fill-rule="evenodd" clip-rule="evenodd" fill="#1D1D1B" width="2.5" height="9.9"/>
					</g>
				</g>
			</g>
			<g>
				<g>
					<g>
						<polygon fill="none" points="569.6,370 569.6,357.9 554.6,357.9 554.6,370 						"/>
					</g>
					<g>
						<rect x="558.5" y="359" fill-rule="evenodd" clip-rule="evenodd" fill="#1D1D1B" width="2.5" height="9.9"/>
						<rect x="563" y="359" fill-rule="evenodd" clip-rule="evenodd" fill="#1D1D1B" width="2.5" height="9.9"/>
					</g>
				</g>
			</g>
			<g>
				<g>
					<g>
						<polygon fill="none" points="569.6,382 569.6,370 554.6,370 554.6,382 						"/>
					</g>
					<g>
						<rect x="558.5" y="371" fill-rule="evenodd" clip-rule="evenodd" fill="#1D1D1B" width="2.5" height="9.9"/>
						<rect x="563" y="371" fill-rule="evenodd" clip-rule="evenodd" fill="#1D1D1B" width="2.5" height="9.9"/>
					</g>
				</g>
			</g>
			<g>
				<g>
					<g>
						<polygon fill="none" points="569.6,394 569.6,382 554.6,382 554.6,394 						"/>
					</g>
					<g>
						<rect x="558.5" y="383" fill-rule="evenodd" clip-rule="evenodd" fill="#1D1D1B" width="2.5" height="9.9"/>
						<rect x="563" y="383" fill-rule="evenodd" clip-rule="evenodd" fill="#1D1D1B" width="2.5" height="9.9"/>
					</g>
				</g>
			</g>
			<g>
				<g>
					<g>
						<polygon fill="none" points="569.6,406 569.6,394 554.6,394 554.6,406 						"/>
					</g>
					<g>
						<rect x="558.5" y="395.1" fill-rule="evenodd" clip-rule="evenodd" fill="#1D1D1B" width="2.5" height="9.9"/>
						<rect x="563" y="395.1" fill-rule="evenodd" clip-rule="evenodd" fill="#1D1D1B" width="2.5" height="9.9"/>
					</g>
				</g>
			</g>
			<g>
				<g>
					<g>
						<polygon fill="none" points="569.6,418.1 569.6,406 554.6,406 554.6,418.1 						"/>
					</g>
					<g>
						<rect x="558.5" y="407.1" fill-rule="evenodd" clip-rule="evenodd" fill="#1D1D1B" width="2.5" height="9.9"/>
						<rect x="563" y="407.1" fill-rule="evenodd" clip-rule="evenodd" fill="#1D1D1B" width="2.5" height="9.9"/>
					</g>
				</g>
			</g>
			<g>
				<g>
					<g>
						<polygon fill="none" points="569.6,430.1 569.6,418.1 554.6,418.1 554.6,430.1 						"/>
					</g>
					<g>
						<rect x="558.5" y="419.1" fill-rule="evenodd" clip-rule="evenodd" fill="#1D1D1B" width="2.5" height="9.9"/>
						<rect x="563" y="419.1" fill-rule="evenodd" clip-rule="evenodd" fill="#1D1D1B" width="2.5" height="9.9"/>
					</g>
				</g>
			</g>
			<g>
				<g>
					<g>
						<polygon fill="none" points="569.6,442.1 569.6,430.1 554.6,430.1 554.6,442.1 						"/>
					</g>
					<g>
						<rect x="558.5" y="431.1" fill-rule="evenodd" clip-rule="evenodd" fill="#1D1D1B" width="2.5" height="9.9"/>
						<rect x="563" y="431.1" fill-rule="evenodd" clip-rule="evenodd" fill="#1D1D1B" width="2.5" height="9.9"/>
					</g>
				</g>
			</g>
			<g>
				<g>
					<g>
						<polygon fill="none" points="569.6,454.1 569.6,442.1 554.6,442.1 554.6,454.1 						"/>
					</g>
					<g>
						<rect x="558.5" y="443.2" fill-rule="evenodd" clip-rule="evenodd" fill="#1D1D1B" width="2.5" height="9.9"/>
						<rect x="563" y="443.2" fill-rule="evenodd" clip-rule="evenodd" fill="#1D1D1B" width="2.5" height="9.9"/>
					</g>
				</g>
			</g>
			<g>
				<g>
					<g>
						<polygon fill="none" points="569.6,466.2 569.6,454.1 554.6,454.1 554.6,466.2 						"/>
					</g>
					<g>
						<rect x="558.5" y="455.2" fill-rule="evenodd" clip-rule="evenodd" fill="#1D1D1B" width="2.5" height="9.9"/>
						<rect x="563" y="455.2" fill-rule="evenodd" clip-rule="evenodd" fill="#1D1D1B" width="2.5" height="9.9"/>
					</g>
				</g>
			</g>
			<g>
				<g>
					<g>
						<polygon fill="none" points="569.6,478.2 569.6,466.2 554.6,466.2 554.6,478.2 						"/>
					</g>
					<g>
						<rect x="558.5" y="467.2" fill-rule="evenodd" clip-rule="evenodd" fill="#1D1D1B" width="2.5" height="9.9"/>
						<rect x="563" y="467.2" fill-rule="evenodd" clip-rule="evenodd" fill="#1D1D1B" width="2.5" height="9.9"/>
					</g>
				</g>
			</g>
			<g>
				<g>
					<g>
						<polygon fill="none" points="569.6,490.2 569.6,478.2 554.6,478.2 554.6,490.2 						"/>
					</g>
					<g>
						<rect x="558.5" y="479.2" fill-rule="evenodd" clip-rule="evenodd" fill="#1D1D1B" width="2.5" height="9.9"/>
						<rect x="563" y="479.2" fill-rule="evenodd" clip-rule="evenodd" fill="#1D1D1B" width="2.5" height="9.9"/>
					</g>
				</g>
			</g>
			<g>
				<g>
					<g>
						<polygon fill="none" points="569.6,502.2 569.6,490.2 554.6,490.2 554.6,502.2 						"/>
					</g>
					<g>
						<rect x="558.5" y="491.3" fill-rule="evenodd" clip-rule="evenodd" fill="#1D1D1B" width="2.5" height="9.9"/>
						<rect x="563" y="491.3" fill-rule="evenodd" clip-rule="evenodd" fill="#1D1D1B" width="2.5" height="9.9"/>
					</g>
				</g>
			</g>
			<g>
				<g>
					<g>
						<polygon fill="none" points="569.6,514.3 569.6,502.2 554.6,502.2 554.6,514.3 						"/>
					</g>
					<g>
						<rect x="558.5" y="503.3" fill-rule="evenodd" clip-rule="evenodd" fill="#1D1D1B" width="2.5" height="9.9"/>
						<rect x="563" y="503.3" fill-rule="evenodd" clip-rule="evenodd" fill="#1D1D1B" width="2.5" height="9.9"/>
					</g>
				</g>
			</g>
			<g>
				<g>
					<g>
						<polygon fill="none" points="569.6,526.3 569.6,514.3 554.6,514.3 554.6,526.3 						"/>
					</g>
					<g>
						<rect x="558.5" y="515.3" fill-rule="evenodd" clip-rule="evenodd" fill="#1D1D1B" width="2.5" height="9.9"/>
						<rect x="563" y="515.3" fill-rule="evenodd" clip-rule="evenodd" fill="#1D1D1B" width="2.5" height="9.9"/>
					</g>
				</g>
			</g>
			<g>
				<g>
					<g>
						<polygon fill="none" points="569.6,538.3 569.6,526.3 554.6,526.3 554.6,538.3 						"/>
					</g>
					<g>
						<rect x="558.5" y="527.3" fill-rule="evenodd" clip-rule="evenodd" fill="#1D1D1B" width="2.5" height="9.9"/>
						<rect x="563" y="527.3" fill-rule="evenodd" clip-rule="evenodd" fill="#1D1D1B" width="2.5" height="9.9"/>
					</g>
				</g>
			</g>
			<g>
				<g>
					<g>
						<polygon fill="none" points="553.9,553.3 554.6,553.3 554.6,538.3 553.9,538.3 						"/>
					</g>
					<g>
						<rect x="553.9" y="542.3" fill-rule="evenodd" clip-rule="evenodd" fill="#1D1D1B" width="0.6" height="2.5"/>
						<rect x="553.9" y="546.8" fill-rule="evenodd" clip-rule="evenodd" fill="#1D1D1B" width="0.6" height="2.5"/>
					</g>
				</g>
			</g>
			<g>
				<rect x="542.9" y="2.7" fill-rule="evenodd" clip-rule="evenodd" fill="#1D1D1B" width="2.5" height="5.5"/>
				<rect x="542.9" y="-1.8" fill-rule="evenodd" clip-rule="evenodd" fill="#1D1D1B" width="2.5" height="2.5"/>
				<rect x="547.4" y="-1.8" fill-rule="evenodd" clip-rule="evenodd" fill="#1D1D1B" width="5.5" height="2.5"/>
				<polygon fill-rule="evenodd" clip-rule="evenodd" fill="#1D1D1B" points="547.4,8.2 549.9,8.2 549.9,5.2 552.9,5.2 552.9,2.7 
					547.4,2.7 				"/>
			</g>
			<g>
				<rect x="555.6" y="-1.8" fill-rule="evenodd" clip-rule="evenodd" fill="#1D1D1B" width="5.5" height="2.5"/>
				<rect x="563.1" y="-1.8" fill-rule="evenodd" clip-rule="evenodd" fill="#1D1D1B" width="2.5" height="2.5"/>
				<rect x="563.1" y="2.7" fill-rule="evenodd" clip-rule="evenodd" fill="#1D1D1B" width="2.5" height="5.5"/>
				<polygon fill-rule="evenodd" clip-rule="evenodd" fill="#1D1D1B" points="555.6,2.7 555.6,5.2 558.6,5.2 558.6,8.2 561.1,8.2 
					561.1,2.7 				"/>
			</g>
			<g>
				<rect x="563.1" y="539.3" fill-rule="evenodd" clip-rule="evenodd" fill="#1D1D1B" width="2.5" height="5.5"/>
				<rect x="563.1" y="546.8" fill-rule="evenodd" clip-rule="evenodd" fill="#1D1D1B" width="2.5" height="2.5"/>
				<rect x="555.6" y="546.8" fill-rule="evenodd" clip-rule="evenodd" fill="#1D1D1B" width="5.5" height="2.5"/>
				<polygon fill-rule="evenodd" clip-rule="evenodd" fill="#1D1D1B" points="561.1,539.3 558.5,539.3 558.5,542.3 555.6,542.3 
					555.6,544.8 561.1,544.8 				"/>
			</g>
			<g>
				<rect x="547.4" y="546.8" fill-rule="evenodd" clip-rule="evenodd" fill="#1D1D1B" width="5.5" height="2.5"/>
				<rect x="542.9" y="546.8" fill-rule="evenodd" clip-rule="evenodd" fill="#1D1D1B" width="2.5" height="2.5"/>
				<rect x="542.9" y="539.3" fill-rule="evenodd" clip-rule="evenodd" fill="#1D1D1B" width="2.5" height="5.5"/>
				<polygon fill-rule="evenodd" clip-rule="evenodd" fill="#1D1D1B" points="552.9,544.8 552.9,542.3 549.9,542.3 549.9,539.3 
					547.4,539.3 547.4,544.8 				"/>
			</g>
		</g>
	</g>
</g>
<path fill="#2B422A" d="M553.2,164.6c47.5,0.3,86.5,0,98.8,20.2c21.5,35.5-9.4,69.4,0.1,125.5c9.5,56,34.9,36,48.9,83.1
	c8.2,27.8,3.3,50.4-9.2,66.6c-1.5,1.9-3,3.7-4.7,5.4c-8.3,8.5-18.9,14.7-30.7,18.4c-19.3,6-62.8,9.3-104.3,9.7
	c-41.5-0.4-83.5-3.7-102.8-9.7c-34.7-10.8-58.7-43.3-44.7-90.4c14-47.1,39.3-27.1,48.8-83.1c9.5-56.1-22.1-90-0.6-125.5
	c12.3-20.2,52.7-19.9,99.7-20.2v0.1"/>
<path fill="none" stroke="#000000" stroke-width="0.5" stroke-linecap="round" stroke-linejoin="round" d="M553.9,493.6"/>
<path fill="#292A2B" d="M597.6,84.3c0.1-34.4-40.7-45.4-67-32.1c-2.7,1.4-5.3,3-7.6,4.9c-8,6.4-13.4,15.8-14,28.3
	c-2.7,61.6,2.7,252.8,2.6,297.7c-0.1,49.6,86.8,46.3,86.8,1.3C598.3,343.8,597.2,203.8,597.6,84.3z M553.3,66
	c43.2,0,30.3,61.7,30.3,61.7H521C521,127.7,510.1,66,553.3,66z M553.8,407.3c-43.1-1.9-30.5-61.6-30.5-61.6h63
	C585.8,346.7,595.9,409.2,553.8,407.3z"/>
<g>
	<g>
		<path fill="none" stroke="#000000" stroke-miterlimit="10" d="M482.3,69.8"/>
	</g>
</g>
<path fill="none" d="M557.3,554.3"/>
<path fill="none" d="M552.2-0.9"/>
</svg>
