<?xml version="1.0" encoding="utf-8"?>
<!-- Generator: Adobe Illustrator 18.0.0, SVG Export Plug-In . SVG Version: 6.00 Build 0)  -->
<!DOCTYPE svg PUBLIC "-//W3C//DTD SVG 1.1//EN" "http://www.w3.org/Graphics/SVG/1.1/DTD/svg11.dtd">
<svg version="1.1" id="Layer_1" xmlns="http://www.w3.org/2000/svg" xmlns:xlink="http://www.w3.org/1999/xlink" x="0px" y="0px"
	 viewBox="0 0 552.6 552.3" enable-background="new 0 0 552.6 552.3" xml:space="preserve">
<g id="XMLID_1_">
	<g>
		<path fill="#223621" d="M552.6,276c0,131.1-91.4,240.9-213.9,269.2c-3,0.7-6,1.3-9,1.9c-17.3,3.4-35.1,5.2-53.4,5.2
			c-140,0-255.7-104.1-273.9-239.2c-0.3-2.3-0.6-4.6-0.9-6.9C0.6,296.3,0,286.2,0,276C0,123.4,123.7-0.3,276.3-0.3
			C428.9-0.3,552.6,123.4,552.6,276z"/>
	</g>
	<g>
		<path fill="none" stroke="#000000" stroke-miterlimit="10" d="M552.6,276c0,131.1-91.4,240.9-213.9,269.2c-3,0.7-6,1.3-9,1.9
			c-17.3,3.4-35.1,5.2-53.4,5.2c-140,0-255.7-104.1-273.9-239.2c-0.3-2.3-0.6-4.6-0.9-6.9C0.6,296.3,0,286.2,0,276
			C0,123.4,123.7-0.3,276.3-0.3C428.9-0.3,552.6,123.4,552.6,276z"/>
	</g>
</g>
<path fill="#2C2E2A" d="M301.8,550.8c-0.7-0.2,0-536.3,0-549.4c0-0.2-12.2-1.4-24.2-1.4c-11.4,0-22.8,0.6-22.8,0.6
	c-0.2-0.1-0.3,550.1-0.1,550.4s22.5,1,23.5,1C279.6,552,302.5,551,301.8,550.8z"/>
<path d="M277.9,495.6"/>
<path d="M277.9,495.6"/>
<path opacity="0.69" d="M1.6,306.2c0.3,2.3,0.5,4.6,0.8,6.9c18.1,135.1,133.8,239.2,273.9,239.2c18.3,0,50.4-4.5,53.4-5.2l86.1-85.2
	c0.5-0.7-24.5,20.4-35.4,23.8c-19.3,6-62.8,9.3-104.3,9.7c-41.5-0.4-83.5-3.7-102.8-9.7c-34.7-10.8-58.7-43.3-44.7-90.4
	c14-47.1,39.3-27.1,48.8-83.1c9.5-56.1-21.8-90-0.3-125.5c8.1-13.3,28.6-17.7,55-19.2c-0.2-33.2-0.1-62.2,0.6-80.2
	c0.4-9,3.2-16.2,8-22.2L1.6,306.2L240.9,65.1"/>
<path fill="none" stroke="#000000" stroke-width="0.5" stroke-linecap="round" stroke-linejoin="round" d="M277.9,495.6"/>
<line fill="none" stroke="#000000" stroke-width="0.5" stroke-linecap="round" stroke-linejoin="round" x1="277.3" y1="166.3" x2="277.5" y2="166.5"/>
<g opacity="0.7">
	<rect x="270.4" y="3.7" width="15.7" height="544.1"/>
	<g>
		<g>
			<g>
				<g>
					<g>
						<polygon fill="none" points="262.9,528.3 262.9,540.3 277.9,540.3 277.9,528.3 						"/>
					</g>
					<g>
						<rect x="271.4" y="529.3" fill-rule="evenodd" clip-rule="evenodd" fill="#1D1D1B" width="2.5" height="9.9"/>
						<rect x="266.9" y="529.3" fill-rule="evenodd" clip-rule="evenodd" fill="#1D1D1B" width="2.5" height="9.9"/>
					</g>
				</g>
			</g>
			<g>
				<g>
					<g>
						<polygon fill="none" points="262.9,516.3 262.9,528.3 277.9,528.3 277.9,516.3 						"/>
					</g>
					<g>
						<rect x="271.4" y="517.3" fill-rule="evenodd" clip-rule="evenodd" fill="#1D1D1B" width="2.5" height="9.9"/>
						<rect x="266.9" y="517.3" fill-rule="evenodd" clip-rule="evenodd" fill="#1D1D1B" width="2.5" height="9.9"/>
					</g>
				</g>
			</g>
			<g>
				<g>
					<g>
						<polygon fill="none" points="262.9,504.2 262.9,516.3 277.9,516.3 277.9,504.2 						"/>
					</g>
					<g>
						<rect x="271.4" y="505.2" fill-rule="evenodd" clip-rule="evenodd" fill="#1D1D1B" width="2.5" height="9.9"/>
						<rect x="266.9" y="505.2" fill-rule="evenodd" clip-rule="evenodd" fill="#1D1D1B" width="2.5" height="9.9"/>
					</g>
				</g>
			</g>
			<g>
				<g>
					<g>
						<polygon fill="none" points="262.9,492.2 262.9,504.2 277.9,504.2 277.9,492.2 						"/>
					</g>
					<g>
						<rect x="271.4" y="493.2" fill-rule="evenodd" clip-rule="evenodd" fill="#1D1D1B" width="2.5" height="9.9"/>
						<rect x="266.9" y="493.2" fill-rule="evenodd" clip-rule="evenodd" fill="#1D1D1B" width="2.5" height="9.9"/>
					</g>
				</g>
			</g>
			<g>
				<g>
					<g>
						<polygon fill="none" points="262.9,480.2 262.9,492.2 277.9,492.2 277.9,480.2 						"/>
					</g>
					<g>
						<rect x="271.4" y="481.2" fill-rule="evenodd" clip-rule="evenodd" fill="#1D1D1B" width="2.5" height="9.9"/>
						<rect x="266.9" y="481.2" fill-rule="evenodd" clip-rule="evenodd" fill="#1D1D1B" width="2.5" height="9.9"/>
					</g>
				</g>
			</g>
			<g>
				<g>
					<g>
						<polygon fill="none" points="262.9,468.2 262.9,480.2 277.9,480.2 277.9,468.2 						"/>
					</g>
					<g>
						<rect x="271.4" y="469.2" fill-rule="evenodd" clip-rule="evenodd" fill="#1D1D1B" width="2.5" height="9.9"/>
						<rect x="266.9" y="469.2" fill-rule="evenodd" clip-rule="evenodd" fill="#1D1D1B" width="2.5" height="9.9"/>
					</g>
				</g>
			</g>
			<g>
				<g>
					<g>
						<polygon fill="none" points="262.9,456.1 262.9,468.2 277.9,468.2 277.9,456.1 						"/>
					</g>
					<g>
						<rect x="271.4" y="457.1" fill-rule="evenodd" clip-rule="evenodd" fill="#1D1D1B" width="2.5" height="9.9"/>
						<rect x="266.9" y="457.1" fill-rule="evenodd" clip-rule="evenodd" fill="#1D1D1B" width="2.5" height="9.9"/>
					</g>
				</g>
			</g>
			<g>
				<g>
					<g>
						<polygon fill="none" points="262.9,444.1 262.9,456.1 277.9,456.1 277.9,444.1 						"/>
					</g>
					<g>
						<rect x="271.4" y="445.1" fill-rule="evenodd" clip-rule="evenodd" fill="#1D1D1B" width="2.5" height="9.9"/>
						<rect x="266.9" y="445.1" fill-rule="evenodd" clip-rule="evenodd" fill="#1D1D1B" width="2.5" height="9.9"/>
					</g>
				</g>
			</g>
			<g>
				<g>
					<g>
						<polygon fill="none" points="262.9,432.1 262.9,444.1 277.9,444.1 277.9,432.1 						"/>
					</g>
					<g>
						<rect x="271.4" y="433.1" fill-rule="evenodd" clip-rule="evenodd" fill="#1D1D1B" width="2.5" height="9.9"/>
						<rect x="266.9" y="433.1" fill-rule="evenodd" clip-rule="evenodd" fill="#1D1D1B" width="2.5" height="9.9"/>
					</g>
				</g>
			</g>
			<g>
				<g>
					<g>
						<polygon fill="none" points="262.9,420.1 262.9,432.1 277.9,432.1 277.9,420.1 						"/>
					</g>
					<g>
						<rect x="271.4" y="421.1" fill-rule="evenodd" clip-rule="evenodd" fill="#1D1D1B" width="2.5" height="9.9"/>
						<rect x="266.9" y="421.1" fill-rule="evenodd" clip-rule="evenodd" fill="#1D1D1B" width="2.5" height="9.9"/>
					</g>
				</g>
			</g>
			<g>
				<g>
					<g>
						<polygon fill="none" points="262.9,408 262.9,420.1 277.9,420.1 277.9,408 						"/>
					</g>
					<g>
						<rect x="271.4" y="409" fill-rule="evenodd" clip-rule="evenodd" fill="#1D1D1B" width="2.5" height="9.9"/>
						<rect x="266.9" y="409" fill-rule="evenodd" clip-rule="evenodd" fill="#1D1D1B" width="2.5" height="9.9"/>
					</g>
				</g>
			</g>
			<g>
				<g>
					<g>
						<polygon fill="none" points="262.9,396 262.9,408 277.9,408 277.9,396 						"/>
					</g>
					<g>
						<rect x="271.4" y="397" fill-rule="evenodd" clip-rule="evenodd" fill="#1D1D1B" width="2.5" height="9.9"/>
						<rect x="266.9" y="397" fill-rule="evenodd" clip-rule="evenodd" fill="#1D1D1B" width="2.5" height="9.9"/>
					</g>
				</g>
			</g>
			<g>
				<g>
					<g>
						<polygon fill="none" points="262.9,384 262.9,396 277.9,396 277.9,384 						"/>
					</g>
					<g>
						<rect x="271.4" y="385" fill-rule="evenodd" clip-rule="evenodd" fill="#1D1D1B" width="2.5" height="9.9"/>
						<rect x="266.9" y="385" fill-rule="evenodd" clip-rule="evenodd" fill="#1D1D1B" width="2.5" height="9.9"/>
					</g>
				</g>
			</g>
			<g>
				<g>
					<g>
						<polygon fill="none" points="262.9,372 262.9,384 277.9,384 277.9,372 						"/>
					</g>
					<g>
						<rect x="271.4" y="373" fill-rule="evenodd" clip-rule="evenodd" fill="#1D1D1B" width="2.5" height="9.9"/>
						<rect x="266.9" y="373" fill-rule="evenodd" clip-rule="evenodd" fill="#1D1D1B" width="2.5" height="9.9"/>
					</g>
				</g>
			</g>
			<g>
				<g>
					<g>
						<polygon fill="none" points="262.9,359.9 262.9,372 277.9,372 277.9,359.9 						"/>
					</g>
					<g>
						<rect x="271.4" y="360.9" fill-rule="evenodd" clip-rule="evenodd" fill="#1D1D1B" width="2.5" height="9.9"/>
						<rect x="266.9" y="360.9" fill-rule="evenodd" clip-rule="evenodd" fill="#1D1D1B" width="2.5" height="9.9"/>
					</g>
				</g>
			</g>
			<g>
				<g>
					<g>
						<polygon fill="none" points="262.9,347.9 262.9,359.9 277.9,359.9 277.9,347.9 						"/>
					</g>
					<g>
						<rect x="271.4" y="348.9" fill-rule="evenodd" clip-rule="evenodd" fill="#1D1D1B" width="2.5" height="9.9"/>
						<rect x="266.9" y="348.9" fill-rule="evenodd" clip-rule="evenodd" fill="#1D1D1B" width="2.5" height="9.9"/>
					</g>
				</g>
			</g>
			<g>
				<g>
					<g>
						<polygon fill="none" points="262.9,335.9 262.9,347.9 277.9,347.9 277.9,335.9 						"/>
					</g>
					<g>
						<rect x="271.4" y="336.9" fill-rule="evenodd" clip-rule="evenodd" fill="#1D1D1B" width="2.5" height="9.9"/>
						<rect x="266.9" y="336.9" fill-rule="evenodd" clip-rule="evenodd" fill="#1D1D1B" width="2.5" height="9.9"/>
					</g>
				</g>
			</g>
			<g>
				<g>
					<g>
						<polygon fill="none" points="262.9,323.9 262.9,335.9 277.9,335.9 277.9,323.9 						"/>
					</g>
					<g>
						<rect x="271.4" y="324.9" fill-rule="evenodd" clip-rule="evenodd" fill="#1D1D1B" width="2.5" height="9.9"/>
						<rect x="266.9" y="324.9" fill-rule="evenodd" clip-rule="evenodd" fill="#1D1D1B" width="2.5" height="9.9"/>
					</g>
				</g>
			</g>
			<g>
				<g>
					<g>
						<polygon fill="none" points="262.9,311.8 262.9,323.9 277.9,323.9 277.9,311.8 						"/>
					</g>
					<g>
						<rect x="271.4" y="312.8" fill-rule="evenodd" clip-rule="evenodd" fill="#1D1D1B" width="2.5" height="9.9"/>
						<rect x="266.9" y="312.8" fill-rule="evenodd" clip-rule="evenodd" fill="#1D1D1B" width="2.5" height="9.9"/>
					</g>
				</g>
			</g>
			<g>
				<g>
					<g>
						<polygon fill="none" points="262.9,299.8 262.9,311.8 277.9,311.8 277.9,299.8 						"/>
					</g>
					<g>
						<rect x="271.4" y="300.8" fill-rule="evenodd" clip-rule="evenodd" fill="#1D1D1B" width="2.5" height="9.9"/>
						<rect x="266.9" y="300.8" fill-rule="evenodd" clip-rule="evenodd" fill="#1D1D1B" width="2.5" height="9.9"/>
					</g>
				</g>
			</g>
			<g>
				<g>
					<g>
						<polygon fill="none" points="262.9,287.8 262.9,299.8 277.9,299.8 277.9,287.8 						"/>
					</g>
					<g>
						<rect x="271.4" y="288.8" fill-rule="evenodd" clip-rule="evenodd" fill="#1D1D1B" width="2.5" height="9.9"/>
						<rect x="266.9" y="288.8" fill-rule="evenodd" clip-rule="evenodd" fill="#1D1D1B" width="2.5" height="9.9"/>
					</g>
				</g>
			</g>
			<g>
				<g>
					<g>
						<polygon fill="none" points="262.9,275.8 262.9,287.8 277.9,287.8 277.9,275.8 						"/>
					</g>
					<g>
						<rect x="271.4" y="276.8" fill-rule="evenodd" clip-rule="evenodd" fill="#1D1D1B" width="2.5" height="9.9"/>
						<rect x="266.9" y="276.8" fill-rule="evenodd" clip-rule="evenodd" fill="#1D1D1B" width="2.5" height="9.9"/>
					</g>
				</g>
			</g>
			<g>
				<g>
					<g>
						<polygon fill="none" points="262.9,263.7 262.9,275.8 277.9,275.8 277.9,263.7 						"/>
					</g>
					<g>
						<rect x="271.4" y="264.7" fill-rule="evenodd" clip-rule="evenodd" fill="#1D1D1B" width="2.5" height="9.9"/>
						<rect x="266.9" y="264.7" fill-rule="evenodd" clip-rule="evenodd" fill="#1D1D1B" width="2.5" height="9.9"/>
					</g>
				</g>
			</g>
			<g>
				<g>
					<g>
						<polygon fill="none" points="262.9,251.7 262.9,263.7 277.9,263.7 277.9,251.7 						"/>
					</g>
					<g>
						<rect x="271.4" y="252.7" fill-rule="evenodd" clip-rule="evenodd" fill="#1D1D1B" width="2.5" height="9.9"/>
						<rect x="266.9" y="252.7" fill-rule="evenodd" clip-rule="evenodd" fill="#1D1D1B" width="2.5" height="9.9"/>
					</g>
				</g>
			</g>
			<g>
				<g>
					<g>
						<polygon fill="none" points="262.9,239.7 262.9,251.7 277.9,251.7 277.9,239.7 						"/>
					</g>
					<g>
						<rect x="271.4" y="240.7" fill-rule="evenodd" clip-rule="evenodd" fill="#1D1D1B" width="2.5" height="9.9"/>
						<rect x="266.9" y="240.7" fill-rule="evenodd" clip-rule="evenodd" fill="#1D1D1B" width="2.5" height="9.9"/>
					</g>
				</g>
			</g>
			<g>
				<g>
					<g>
						<polygon fill="none" points="262.9,227.7 262.9,239.7 277.9,239.7 277.9,227.7 						"/>
					</g>
					<g>
						<rect x="271.4" y="228.7" fill-rule="evenodd" clip-rule="evenodd" fill="#1D1D1B" width="2.5" height="9.9"/>
						<rect x="266.9" y="228.7" fill-rule="evenodd" clip-rule="evenodd" fill="#1D1D1B" width="2.5" height="9.9"/>
					</g>
				</g>
			</g>
			<g>
				<g>
					<g>
						<polygon fill="none" points="262.9,215.6 262.9,227.7 277.9,227.7 277.9,215.6 						"/>
					</g>
					<g>
						<rect x="271.4" y="216.6" fill-rule="evenodd" clip-rule="evenodd" fill="#1D1D1B" width="2.5" height="9.9"/>
						<rect x="266.9" y="216.6" fill-rule="evenodd" clip-rule="evenodd" fill="#1D1D1B" width="2.5" height="9.9"/>
					</g>
				</g>
			</g>
			<g>
				<g>
					<g>
						<polygon fill="none" points="262.9,203.6 262.9,215.6 277.9,215.6 277.9,203.6 						"/>
					</g>
					<g>
						<rect x="271.4" y="204.6" fill-rule="evenodd" clip-rule="evenodd" fill="#1D1D1B" width="2.5" height="9.9"/>
						<rect x="266.9" y="204.6" fill-rule="evenodd" clip-rule="evenodd" fill="#1D1D1B" width="2.5" height="9.9"/>
					</g>
				</g>
			</g>
			<g>
				<g>
					<g>
						<polygon fill="none" points="262.9,191.6 262.9,203.6 277.9,203.6 277.9,191.6 						"/>
					</g>
					<g>
						<rect x="271.4" y="192.6" fill-rule="evenodd" clip-rule="evenodd" fill="#1D1D1B" width="2.5" height="9.9"/>
						<rect x="266.9" y="192.6" fill-rule="evenodd" clip-rule="evenodd" fill="#1D1D1B" width="2.5" height="9.9"/>
					</g>
				</g>
			</g>
			<g>
				<g>
					<g>
						<polygon fill="none" points="262.9,179.6 262.9,191.6 277.9,191.6 277.9,179.6 						"/>
					</g>
					<g>
						<rect x="271.4" y="180.6" fill-rule="evenodd" clip-rule="evenodd" fill="#1D1D1B" width="2.5" height="9.9"/>
						<rect x="266.9" y="180.6" fill-rule="evenodd" clip-rule="evenodd" fill="#1D1D1B" width="2.5" height="9.9"/>
					</g>
				</g>
			</g>
			<g>
				<g>
					<g>
						<polygon fill="none" points="262.9,167.5 262.9,179.6 277.9,179.6 277.9,167.5 						"/>
					</g>
					<g>
						<rect x="271.4" y="168.5" fill-rule="evenodd" clip-rule="evenodd" fill="#1D1D1B" width="2.5" height="9.9"/>
						<rect x="266.9" y="168.5" fill-rule="evenodd" clip-rule="evenodd" fill="#1D1D1B" width="2.5" height="9.9"/>
					</g>
				</g>
			</g>
			<g>
				<g>
					<g>
						<polygon fill="none" points="262.9,155.5 262.9,167.5 277.9,167.5 277.9,155.5 						"/>
					</g>
					<g>
						<rect x="271.4" y="156.5" fill-rule="evenodd" clip-rule="evenodd" fill="#1D1D1B" width="2.5" height="9.9"/>
						<rect x="266.9" y="156.5" fill-rule="evenodd" clip-rule="evenodd" fill="#1D1D1B" width="2.5" height="9.9"/>
					</g>
				</g>
			</g>
			<g>
				<g>
					<g>
						<polygon fill="none" points="262.9,143.5 262.9,155.5 277.9,155.5 277.9,143.5 						"/>
					</g>
					<g>
						<rect x="271.4" y="144.5" fill-rule="evenodd" clip-rule="evenodd" fill="#1D1D1B" width="2.5" height="9.9"/>
						<rect x="266.9" y="144.5" fill-rule="evenodd" clip-rule="evenodd" fill="#1D1D1B" width="2.5" height="9.9"/>
					</g>
				</g>
			</g>
			<g>
				<g>
					<g>
						<polygon fill="none" points="262.9,131.5 262.9,143.5 277.9,143.5 277.9,131.5 						"/>
					</g>
					<g>
						<rect x="271.4" y="132.5" fill-rule="evenodd" clip-rule="evenodd" fill="#1D1D1B" width="2.5" height="9.9"/>
						<rect x="266.9" y="132.5" fill-rule="evenodd" clip-rule="evenodd" fill="#1D1D1B" width="2.5" height="9.9"/>
					</g>
				</g>
			</g>
			<g>
				<g>
					<g>
						<polygon fill="none" points="262.9,119.4 262.9,131.5 277.9,131.5 277.9,119.4 						"/>
					</g>
					<g>
						<rect x="271.4" y="120.4" fill-rule="evenodd" clip-rule="evenodd" fill="#1D1D1B" width="2.5" height="9.9"/>
						<rect x="266.9" y="120.4" fill-rule="evenodd" clip-rule="evenodd" fill="#1D1D1B" width="2.5" height="9.9"/>
					</g>
				</g>
			</g>
			<g>
				<g>
					<g>
						<polygon fill="none" points="262.9,107.4 262.9,119.4 277.9,119.4 277.9,107.4 						"/>
					</g>
					<g>
						<rect x="271.4" y="108.4" fill-rule="evenodd" clip-rule="evenodd" fill="#1D1D1B" width="2.5" height="9.9"/>
						<rect x="266.9" y="108.4" fill-rule="evenodd" clip-rule="evenodd" fill="#1D1D1B" width="2.5" height="9.9"/>
					</g>
				</g>
			</g>
			<g>
				<g>
					<g>
						<polygon fill="none" points="262.9,95.4 262.9,107.4 277.9,107.4 277.9,95.4 						"/>
					</g>
					<g>
						<rect x="271.4" y="96.4" fill-rule="evenodd" clip-rule="evenodd" fill="#1D1D1B" width="2.5" height="9.9"/>
						<rect x="266.9" y="96.4" fill-rule="evenodd" clip-rule="evenodd" fill="#1D1D1B" width="2.5" height="9.9"/>
					</g>
				</g>
			</g>
			<g>
				<g>
					<g>
						<polygon fill="none" points="262.9,83.4 262.9,95.4 277.9,95.4 277.9,83.4 						"/>
					</g>
					<g>
						<rect x="271.4" y="84.4" fill-rule="evenodd" clip-rule="evenodd" fill="#1D1D1B" width="2.5" height="9.9"/>
						<rect x="266.9" y="84.4" fill-rule="evenodd" clip-rule="evenodd" fill="#1D1D1B" width="2.5" height="9.9"/>
					</g>
				</g>
			</g>
			<g>
				<g>
					<g>
						<polygon fill="none" points="262.9,71.3 262.9,83.4 277.9,83.4 277.9,71.3 						"/>
					</g>
					<g>
						<rect x="271.4" y="72.3" fill-rule="evenodd" clip-rule="evenodd" fill="#1D1D1B" width="2.5" height="9.9"/>
						<rect x="266.9" y="72.3" fill-rule="evenodd" clip-rule="evenodd" fill="#1D1D1B" width="2.5" height="9.9"/>
					</g>
				</g>
			</g>
			<g>
				<g>
					<g>
						<polygon fill="none" points="262.9,59.3 262.9,71.3 277.9,71.3 277.9,59.3 						"/>
					</g>
					<g>
						<rect x="271.4" y="60.3" fill-rule="evenodd" clip-rule="evenodd" fill="#1D1D1B" width="2.5" height="9.9"/>
						<rect x="266.9" y="60.3" fill-rule="evenodd" clip-rule="evenodd" fill="#1D1D1B" width="2.5" height="9.9"/>
					</g>
				</g>
			</g>
			<g>
				<g>
					<g>
						<polygon fill="none" points="262.9,47.3 262.9,59.3 277.9,59.3 277.9,47.3 						"/>
					</g>
					<g>
						<rect x="271.4" y="48.3" fill-rule="evenodd" clip-rule="evenodd" fill="#1D1D1B" width="2.5" height="9.9"/>
						<rect x="266.9" y="48.3" fill-rule="evenodd" clip-rule="evenodd" fill="#1D1D1B" width="2.5" height="9.9"/>
					</g>
				</g>
			</g>
			<g>
				<g>
					<g>
						<polygon fill="none" points="262.9,35.3 262.9,47.3 277.9,47.3 277.9,35.3 						"/>
					</g>
					<g>
						<rect x="271.4" y="36.3" fill-rule="evenodd" clip-rule="evenodd" fill="#1D1D1B" width="2.5" height="9.9"/>
						<rect x="266.9" y="36.3" fill-rule="evenodd" clip-rule="evenodd" fill="#1D1D1B" width="2.5" height="9.9"/>
					</g>
				</g>
			</g>
			<g>
				<g>
					<g>
						<polygon fill="none" points="262.9,23.2 262.9,35.3 277.9,35.3 277.9,23.2 						"/>
					</g>
					<g>
						<rect x="271.4" y="24.2" fill-rule="evenodd" clip-rule="evenodd" fill="#1D1D1B" width="2.5" height="9.9"/>
						<rect x="266.9" y="24.2" fill-rule="evenodd" clip-rule="evenodd" fill="#1D1D1B" width="2.5" height="9.9"/>
					</g>
				</g>
			</g>
			<g>
				<g>
					<g>
						<polygon fill="none" points="262.9,11.2 262.9,23.2 277.9,23.2 277.9,11.2 						"/>
					</g>
					<g>
						<rect x="271.4" y="12.2" fill-rule="evenodd" clip-rule="evenodd" fill="#1D1D1B" width="2.5" height="9.9"/>
						<rect x="266.9" y="12.2" fill-rule="evenodd" clip-rule="evenodd" fill="#1D1D1B" width="2.5" height="9.9"/>
					</g>
				</g>
			</g>
			<g>
				<g>
					<g>
						<polygon fill="none" points="278.6,-3.8 277.9,-3.8 277.9,11.2 278.6,11.2 						"/>
					</g>
					<g>
						<rect x="277.9" y="4.7" fill-rule="evenodd" clip-rule="evenodd" fill="#1D1D1B" width="0.6" height="2.5"/>
						<rect x="277.9" y="0.2" fill-rule="evenodd" clip-rule="evenodd" fill="#1D1D1B" width="0.6" height="2.5"/>
					</g>
				</g>
			</g>
			<g>
				<g>
					<g>
						<polygon fill="none" points="293.6,23.2 293.6,11.2 278.6,11.2 278.6,23.2 						"/>
					</g>
					<g>
						<rect x="282.5" y="12.3" fill-rule="evenodd" clip-rule="evenodd" fill="#1D1D1B" width="2.5" height="9.9"/>
						<rect x="287" y="12.3" fill-rule="evenodd" clip-rule="evenodd" fill="#1D1D1B" width="2.5" height="9.9"/>
					</g>
				</g>
			</g>
			<g>
				<g>
					<g>
						<polygon fill="none" points="293.6,35.3 293.6,23.2 278.6,23.2 278.6,35.3 						"/>
					</g>
					<g>
						<rect x="282.5" y="24.3" fill-rule="evenodd" clip-rule="evenodd" fill="#1D1D1B" width="2.5" height="9.9"/>
						<rect x="287" y="24.3" fill-rule="evenodd" clip-rule="evenodd" fill="#1D1D1B" width="2.5" height="9.9"/>
					</g>
				</g>
			</g>
			<g>
				<g>
					<g>
						<polygon fill="none" points="293.6,47.3 293.6,35.3 278.6,35.3 278.6,47.3 						"/>
					</g>
					<g>
						<rect x="282.5" y="36.3" fill-rule="evenodd" clip-rule="evenodd" fill="#1D1D1B" width="2.5" height="9.9"/>
						<rect x="287" y="36.3" fill-rule="evenodd" clip-rule="evenodd" fill="#1D1D1B" width="2.5" height="9.9"/>
					</g>
				</g>
			</g>
			<g>
				<g>
					<g>
						<polygon fill="none" points="293.6,59.3 293.6,47.3 278.6,47.3 278.6,59.3 						"/>
					</g>
					<g>
						<rect x="282.5" y="48.3" fill-rule="evenodd" clip-rule="evenodd" fill="#1D1D1B" width="2.5" height="9.9"/>
						<rect x="287" y="48.3" fill-rule="evenodd" clip-rule="evenodd" fill="#1D1D1B" width="2.5" height="9.9"/>
					</g>
				</g>
			</g>
			<g>
				<g>
					<g>
						<polygon fill="none" points="293.6,71.3 293.6,59.3 278.6,59.3 278.6,71.3 						"/>
					</g>
					<g>
						<rect x="282.5" y="60.4" fill-rule="evenodd" clip-rule="evenodd" fill="#1D1D1B" width="2.5" height="9.9"/>
						<rect x="287" y="60.4" fill-rule="evenodd" clip-rule="evenodd" fill="#1D1D1B" width="2.5" height="9.9"/>
					</g>
				</g>
			</g>
			<g>
				<g>
					<g>
						<polygon fill="none" points="293.6,83.4 293.6,71.3 278.6,71.3 278.6,83.4 						"/>
					</g>
					<g>
						<rect x="282.5" y="72.4" fill-rule="evenodd" clip-rule="evenodd" fill="#1D1D1B" width="2.5" height="9.9"/>
						<rect x="287" y="72.4" fill-rule="evenodd" clip-rule="evenodd" fill="#1D1D1B" width="2.5" height="9.9"/>
					</g>
				</g>
			</g>
			<g>
				<g>
					<g>
						<polygon fill="none" points="293.6,95.4 293.6,83.4 278.6,83.4 278.6,95.4 						"/>
					</g>
					<g>
						<rect x="282.5" y="84.4" fill-rule="evenodd" clip-rule="evenodd" fill="#1D1D1B" width="2.5" height="9.9"/>
						<rect x="287" y="84.4" fill-rule="evenodd" clip-rule="evenodd" fill="#1D1D1B" width="2.5" height="9.9"/>
					</g>
				</g>
			</g>
			<g>
				<g>
					<g>
						<polygon fill="none" points="293.6,107.4 293.6,95.4 278.6,95.4 278.6,107.4 						"/>
					</g>
					<g>
						<rect x="282.5" y="96.4" fill-rule="evenodd" clip-rule="evenodd" fill="#1D1D1B" width="2.5" height="9.9"/>
						<rect x="287" y="96.4" fill-rule="evenodd" clip-rule="evenodd" fill="#1D1D1B" width="2.5" height="9.9"/>
					</g>
				</g>
			</g>
			<g>
				<g>
					<g>
						<polygon fill="none" points="293.6,119.4 293.6,107.4 278.6,107.4 278.6,119.4 						"/>
					</g>
					<g>
						<rect x="282.5" y="108.5" fill-rule="evenodd" clip-rule="evenodd" fill="#1D1D1B" width="2.5" height="9.9"/>
						<rect x="287" y="108.5" fill-rule="evenodd" clip-rule="evenodd" fill="#1D1D1B" width="2.5" height="9.9"/>
					</g>
				</g>
			</g>
			<g>
				<g>
					<g>
						<polygon fill="none" points="293.6,131.5 293.6,119.4 278.6,119.4 278.6,131.5 						"/>
					</g>
					<g>
						<rect x="282.5" y="120.5" fill-rule="evenodd" clip-rule="evenodd" fill="#1D1D1B" width="2.5" height="9.9"/>
						<rect x="287" y="120.5" fill-rule="evenodd" clip-rule="evenodd" fill="#1D1D1B" width="2.5" height="9.9"/>
					</g>
				</g>
			</g>
			<g>
				<g>
					<g>
						<polygon fill="none" points="293.6,143.5 293.6,131.5 278.6,131.5 278.6,143.5 						"/>
					</g>
					<g>
						<rect x="282.5" y="132.5" fill-rule="evenodd" clip-rule="evenodd" fill="#1D1D1B" width="2.5" height="9.9"/>
						<rect x="287" y="132.5" fill-rule="evenodd" clip-rule="evenodd" fill="#1D1D1B" width="2.5" height="9.9"/>
					</g>
				</g>
			</g>
			<g>
				<g>
					<g>
						<polygon fill="none" points="293.6,155.5 293.6,143.5 278.6,143.5 278.6,155.5 						"/>
					</g>
					<g>
						<rect x="282.5" y="144.5" fill-rule="evenodd" clip-rule="evenodd" fill="#1D1D1B" width="2.5" height="9.9"/>
						<rect x="287" y="144.5" fill-rule="evenodd" clip-rule="evenodd" fill="#1D1D1B" width="2.5" height="9.9"/>
					</g>
				</g>
			</g>
			<g>
				<g>
					<g>
						<polygon fill="none" points="293.6,167.5 293.6,155.5 278.6,155.5 278.6,167.5 						"/>
					</g>
					<g>
						<rect x="282.5" y="156.6" fill-rule="evenodd" clip-rule="evenodd" fill="#1D1D1B" width="2.5" height="9.9"/>
						<rect x="287" y="156.6" fill-rule="evenodd" clip-rule="evenodd" fill="#1D1D1B" width="2.5" height="9.9"/>
					</g>
				</g>
			</g>
			<g>
				<g>
					<g>
						<polygon fill="none" points="293.6,179.6 293.6,167.5 278.6,167.5 278.6,179.6 						"/>
					</g>
					<g>
						<rect x="282.5" y="168.6" fill-rule="evenodd" clip-rule="evenodd" fill="#1D1D1B" width="2.5" height="9.9"/>
						<rect x="287" y="168.6" fill-rule="evenodd" clip-rule="evenodd" fill="#1D1D1B" width="2.5" height="9.9"/>
					</g>
				</g>
			</g>
			<g>
				<g>
					<g>
						<polygon fill="none" points="293.6,191.6 293.6,179.6 278.6,179.6 278.6,191.6 						"/>
					</g>
					<g>
						<rect x="282.5" y="180.6" fill-rule="evenodd" clip-rule="evenodd" fill="#1D1D1B" width="2.5" height="9.9"/>
						<rect x="287" y="180.6" fill-rule="evenodd" clip-rule="evenodd" fill="#1D1D1B" width="2.5" height="9.9"/>
					</g>
				</g>
			</g>
			<g>
				<g>
					<g>
						<polygon fill="none" points="293.6,203.6 293.6,191.6 278.6,191.6 278.6,203.6 						"/>
					</g>
					<g>
						<rect x="282.5" y="192.6" fill-rule="evenodd" clip-rule="evenodd" fill="#1D1D1B" width="2.5" height="9.9"/>
						<rect x="287" y="192.6" fill-rule="evenodd" clip-rule="evenodd" fill="#1D1D1B" width="2.5" height="9.9"/>
					</g>
				</g>
			</g>
			<g>
				<g>
					<g>
						<polygon fill="none" points="293.6,215.6 293.6,203.6 278.6,203.6 278.6,215.6 						"/>
					</g>
					<g>
						<rect x="282.5" y="204.7" fill-rule="evenodd" clip-rule="evenodd" fill="#1D1D1B" width="2.5" height="9.9"/>
						<rect x="287" y="204.7" fill-rule="evenodd" clip-rule="evenodd" fill="#1D1D1B" width="2.5" height="9.9"/>
					</g>
				</g>
			</g>
			<g>
				<g>
					<g>
						<polygon fill="none" points="293.6,227.7 293.6,215.6 278.6,215.6 278.6,227.7 						"/>
					</g>
					<g>
						<rect x="282.5" y="216.7" fill-rule="evenodd" clip-rule="evenodd" fill="#1D1D1B" width="2.5" height="9.9"/>
						<rect x="287" y="216.7" fill-rule="evenodd" clip-rule="evenodd" fill="#1D1D1B" width="2.5" height="9.9"/>
					</g>
				</g>
			</g>
			<g>
				<g>
					<g>
						<polygon fill="none" points="293.6,239.7 293.6,227.7 278.6,227.7 278.6,239.7 						"/>
					</g>
					<g>
						<rect x="282.5" y="228.7" fill-rule="evenodd" clip-rule="evenodd" fill="#1D1D1B" width="2.5" height="9.9"/>
						<rect x="287" y="228.7" fill-rule="evenodd" clip-rule="evenodd" fill="#1D1D1B" width="2.5" height="9.9"/>
					</g>
				</g>
			</g>
			<g>
				<g>
					<g>
						<polygon fill="none" points="293.6,251.7 293.6,239.7 278.6,239.7 278.6,251.7 						"/>
					</g>
					<g>
						<rect x="282.5" y="240.7" fill-rule="evenodd" clip-rule="evenodd" fill="#1D1D1B" width="2.5" height="9.9"/>
						<rect x="287" y="240.7" fill-rule="evenodd" clip-rule="evenodd" fill="#1D1D1B" width="2.5" height="9.9"/>
					</g>
				</g>
			</g>
			<g>
				<g>
					<g>
						<polygon fill="none" points="293.6,263.7 293.6,251.7 278.6,251.7 278.6,263.7 						"/>
					</g>
					<g>
						<rect x="282.5" y="252.8" fill-rule="evenodd" clip-rule="evenodd" fill="#1D1D1B" width="2.5" height="9.9"/>
						<rect x="287" y="252.8" fill-rule="evenodd" clip-rule="evenodd" fill="#1D1D1B" width="2.5" height="9.9"/>
					</g>
				</g>
			</g>
			<g>
				<g>
					<g>
						<polygon fill="none" points="293.6,275.8 293.6,263.7 278.6,263.7 278.6,275.8 						"/>
					</g>
					<g>
						<rect x="282.5" y="264.8" fill-rule="evenodd" clip-rule="evenodd" fill="#1D1D1B" width="2.5" height="9.9"/>
						<rect x="287" y="264.8" fill-rule="evenodd" clip-rule="evenodd" fill="#1D1D1B" width="2.5" height="9.9"/>
					</g>
				</g>
			</g>
			<g>
				<g>
					<g>
						<polygon fill="none" points="293.6,287.8 293.6,275.8 278.6,275.8 278.6,287.8 						"/>
					</g>
					<g>
						<rect x="282.5" y="276.8" fill-rule="evenodd" clip-rule="evenodd" fill="#1D1D1B" width="2.5" height="9.9"/>
						<rect x="287" y="276.8" fill-rule="evenodd" clip-rule="evenodd" fill="#1D1D1B" width="2.5" height="9.9"/>
					</g>
				</g>
			</g>
			<g>
				<g>
					<g>
						<polygon fill="none" points="293.6,299.8 293.6,287.8 278.6,287.8 278.6,299.8 						"/>
					</g>
					<g>
						<rect x="282.5" y="288.8" fill-rule="evenodd" clip-rule="evenodd" fill="#1D1D1B" width="2.5" height="9.9"/>
						<rect x="287" y="288.8" fill-rule="evenodd" clip-rule="evenodd" fill="#1D1D1B" width="2.5" height="9.9"/>
					</g>
				</g>
			</g>
			<g>
				<g>
					<g>
						<polygon fill="none" points="293.6,311.8 293.6,299.8 278.6,299.8 278.6,311.8 						"/>
					</g>
					<g>
						<rect x="282.5" y="300.9" fill-rule="evenodd" clip-rule="evenodd" fill="#1D1D1B" width="2.5" height="9.9"/>
						<rect x="287" y="300.9" fill-rule="evenodd" clip-rule="evenodd" fill="#1D1D1B" width="2.5" height="9.9"/>
					</g>
				</g>
			</g>
			<g>
				<g>
					<g>
						<polygon fill="none" points="293.6,323.9 293.6,311.8 278.6,311.8 278.6,323.9 						"/>
					</g>
					<g>
						<rect x="282.5" y="312.9" fill-rule="evenodd" clip-rule="evenodd" fill="#1D1D1B" width="2.5" height="9.9"/>
						<rect x="287" y="312.9" fill-rule="evenodd" clip-rule="evenodd" fill="#1D1D1B" width="2.5" height="9.9"/>
					</g>
				</g>
			</g>
			<g>
				<g>
					<g>
						<polygon fill="none" points="293.6,335.9 293.6,323.9 278.6,323.9 278.6,335.9 						"/>
					</g>
					<g>
						<rect x="282.5" y="324.9" fill-rule="evenodd" clip-rule="evenodd" fill="#1D1D1B" width="2.5" height="9.9"/>
						<rect x="287" y="324.9" fill-rule="evenodd" clip-rule="evenodd" fill="#1D1D1B" width="2.5" height="9.9"/>
					</g>
				</g>
			</g>
			<g>
				<g>
					<g>
						<polygon fill="none" points="293.6,347.9 293.6,335.9 278.6,335.9 278.6,347.9 						"/>
					</g>
					<g>
						<rect x="282.5" y="336.9" fill-rule="evenodd" clip-rule="evenodd" fill="#1D1D1B" width="2.5" height="9.9"/>
						<rect x="287" y="336.9" fill-rule="evenodd" clip-rule="evenodd" fill="#1D1D1B" width="2.5" height="9.9"/>
					</g>
				</g>
			</g>
			<g>
				<g>
					<g>
						<polygon fill="none" points="293.6,359.9 293.6,347.9 278.6,347.9 278.6,359.9 						"/>
					</g>
					<g>
						<rect x="282.5" y="349" fill-rule="evenodd" clip-rule="evenodd" fill="#1D1D1B" width="2.5" height="9.9"/>
						<rect x="287" y="349" fill-rule="evenodd" clip-rule="evenodd" fill="#1D1D1B" width="2.5" height="9.9"/>
					</g>
				</g>
			</g>
			<g>
				<g>
					<g>
						<polygon fill="none" points="293.6,372 293.6,359.9 278.6,359.9 278.6,372 						"/>
					</g>
					<g>
						<rect x="282.5" y="361" fill-rule="evenodd" clip-rule="evenodd" fill="#1D1D1B" width="2.5" height="9.9"/>
						<rect x="287" y="361" fill-rule="evenodd" clip-rule="evenodd" fill="#1D1D1B" width="2.5" height="9.9"/>
					</g>
				</g>
			</g>
			<g>
				<g>
					<g>
						<polygon fill="none" points="293.6,384 293.6,372 278.6,372 278.6,384 						"/>
					</g>
					<g>
						<rect x="282.5" y="373" fill-rule="evenodd" clip-rule="evenodd" fill="#1D1D1B" width="2.5" height="9.9"/>
						<rect x="287" y="373" fill-rule="evenodd" clip-rule="evenodd" fill="#1D1D1B" width="2.5" height="9.9"/>
					</g>
				</g>
			</g>
			<g>
				<g>
					<g>
						<polygon fill="none" points="293.6,396 293.6,384 278.6,384 278.6,396 						"/>
					</g>
					<g>
						<rect x="282.5" y="385" fill-rule="evenodd" clip-rule="evenodd" fill="#1D1D1B" width="2.5" height="9.9"/>
						<rect x="287" y="385" fill-rule="evenodd" clip-rule="evenodd" fill="#1D1D1B" width="2.5" height="9.9"/>
					</g>
				</g>
			</g>
			<g>
				<g>
					<g>
						<polygon fill="none" points="293.6,408 293.6,396 278.6,396 278.6,408 						"/>
					</g>
					<g>
						<rect x="282.5" y="397.1" fill-rule="evenodd" clip-rule="evenodd" fill="#1D1D1B" width="2.5" height="9.9"/>
						<rect x="287" y="397.1" fill-rule="evenodd" clip-rule="evenodd" fill="#1D1D1B" width="2.5" height="9.9"/>
					</g>
				</g>
			</g>
			<g>
				<g>
					<g>
						<polygon fill="none" points="293.6,420.1 293.6,408 278.6,408 278.6,420.1 						"/>
					</g>
					<g>
						<rect x="282.5" y="409.1" fill-rule="evenodd" clip-rule="evenodd" fill="#1D1D1B" width="2.5" height="9.9"/>
						<rect x="287" y="409.1" fill-rule="evenodd" clip-rule="evenodd" fill="#1D1D1B" width="2.5" height="9.9"/>
					</g>
				</g>
			</g>
			<g>
				<g>
					<g>
						<polygon fill="none" points="293.6,432.1 293.6,420.1 278.6,420.1 278.6,432.1 						"/>
					</g>
					<g>
						<rect x="282.5" y="421.1" fill-rule="evenodd" clip-rule="evenodd" fill="#1D1D1B" width="2.5" height="9.9"/>
						<rect x="287" y="421.1" fill-rule="evenodd" clip-rule="evenodd" fill="#1D1D1B" width="2.5" height="9.9"/>
					</g>
				</g>
			</g>
			<g>
				<g>
					<g>
						<polygon fill="none" points="293.6,444.1 293.6,432.1 278.6,432.1 278.6,444.1 						"/>
					</g>
					<g>
						<rect x="282.5" y="433.1" fill-rule="evenodd" clip-rule="evenodd" fill="#1D1D1B" width="2.5" height="9.9"/>
						<rect x="287" y="433.1" fill-rule="evenodd" clip-rule="evenodd" fill="#1D1D1B" width="2.5" height="9.9"/>
					</g>
				</g>
			</g>
			<g>
				<g>
					<g>
						<polygon fill="none" points="293.6,456.1 293.6,444.1 278.6,444.1 278.6,456.1 						"/>
					</g>
					<g>
						<rect x="282.5" y="445.2" fill-rule="evenodd" clip-rule="evenodd" fill="#1D1D1B" width="2.5" height="9.9"/>
						<rect x="287" y="445.2" fill-rule="evenodd" clip-rule="evenodd" fill="#1D1D1B" width="2.5" height="9.9"/>
					</g>
				</g>
			</g>
			<g>
				<g>
					<g>
						<polygon fill="none" points="293.6,468.2 293.6,456.1 278.6,456.1 278.6,468.2 						"/>
					</g>
					<g>
						<rect x="282.5" y="457.2" fill-rule="evenodd" clip-rule="evenodd" fill="#1D1D1B" width="2.5" height="9.9"/>
						<rect x="287" y="457.2" fill-rule="evenodd" clip-rule="evenodd" fill="#1D1D1B" width="2.5" height="9.9"/>
					</g>
				</g>
			</g>
			<g>
				<g>
					<g>
						<polygon fill="none" points="293.6,480.2 293.6,468.2 278.6,468.2 278.6,480.2 						"/>
					</g>
					<g>
						<rect x="282.5" y="469.2" fill-rule="evenodd" clip-rule="evenodd" fill="#1D1D1B" width="2.5" height="9.9"/>
						<rect x="287" y="469.2" fill-rule="evenodd" clip-rule="evenodd" fill="#1D1D1B" width="2.5" height="9.9"/>
					</g>
				</g>
			</g>
			<g>
				<g>
					<g>
						<polygon fill="none" points="293.6,492.2 293.6,480.2 278.6,480.2 278.6,492.2 						"/>
					</g>
					<g>
						<rect x="282.5" y="481.2" fill-rule="evenodd" clip-rule="evenodd" fill="#1D1D1B" width="2.5" height="9.9"/>
						<rect x="287" y="481.2" fill-rule="evenodd" clip-rule="evenodd" fill="#1D1D1B" width="2.5" height="9.9"/>
					</g>
				</g>
			</g>
			<g>
				<g>
					<g>
						<polygon fill="none" points="293.6,504.2 293.6,492.2 278.6,492.2 278.6,504.2 						"/>
					</g>
					<g>
						<rect x="282.5" y="493.3" fill-rule="evenodd" clip-rule="evenodd" fill="#1D1D1B" width="2.5" height="9.9"/>
						<rect x="287" y="493.3" fill-rule="evenodd" clip-rule="evenodd" fill="#1D1D1B" width="2.5" height="9.9"/>
					</g>
				</g>
			</g>
			<g>
				<g>
					<g>
						<polygon fill="none" points="293.6,516.3 293.6,504.2 278.6,504.2 278.6,516.3 						"/>
					</g>
					<g>
						<rect x="282.5" y="505.3" fill-rule="evenodd" clip-rule="evenodd" fill="#1D1D1B" width="2.5" height="9.9"/>
						<rect x="287" y="505.3" fill-rule="evenodd" clip-rule="evenodd" fill="#1D1D1B" width="2.5" height="9.9"/>
					</g>
				</g>
			</g>
			<g>
				<g>
					<g>
						<polygon fill="none" points="293.6,528.3 293.6,516.3 278.6,516.3 278.6,528.3 						"/>
					</g>
					<g>
						<rect x="282.5" y="517.3" fill-rule="evenodd" clip-rule="evenodd" fill="#1D1D1B" width="2.5" height="9.9"/>
						<rect x="287" y="517.3" fill-rule="evenodd" clip-rule="evenodd" fill="#1D1D1B" width="2.5" height="9.9"/>
					</g>
				</g>
			</g>
			<g>
				<g>
					<g>
						<polygon fill="none" points="293.6,540.3 293.6,528.3 278.6,528.3 278.6,540.3 						"/>
					</g>
					<g>
						<rect x="282.5" y="529.3" fill-rule="evenodd" clip-rule="evenodd" fill="#1D1D1B" width="2.5" height="9.9"/>
						<rect x="287" y="529.3" fill-rule="evenodd" clip-rule="evenodd" fill="#1D1D1B" width="2.5" height="9.9"/>
					</g>
				</g>
			</g>
			<g>
				<g>
					<g>
						<polygon fill="none" points="277.9,555.3 278.6,555.3 278.6,540.3 277.9,540.3 						"/>
					</g>
					<g>
						<rect x="277.9" y="544.3" fill-rule="evenodd" clip-rule="evenodd" fill="#1D1D1B" width="0.6" height="2.5"/>
						<rect x="277.9" y="548.8" fill-rule="evenodd" clip-rule="evenodd" fill="#1D1D1B" width="0.6" height="2.5"/>
					</g>
				</g>
			</g>
			<g>
				<rect x="266.9" y="4.7" fill-rule="evenodd" clip-rule="evenodd" fill="#1D1D1B" width="2.5" height="5.5"/>
				<rect x="266.9" y="0.2" fill-rule="evenodd" clip-rule="evenodd" fill="#1D1D1B" width="2.5" height="2.5"/>
				<rect x="271.4" y="0.2" fill-rule="evenodd" clip-rule="evenodd" fill="#1D1D1B" width="5.5" height="2.5"/>
				<polygon fill-rule="evenodd" clip-rule="evenodd" fill="#1D1D1B" points="271.4,10.2 273.9,10.2 273.9,7.2 276.9,7.2 276.9,4.7 
					271.4,4.7 				"/>
			</g>
			<g>
				<rect x="279.6" y="0.2" fill-rule="evenodd" clip-rule="evenodd" fill="#1D1D1B" width="5.5" height="2.5"/>
				<rect x="287.1" y="0.2" fill-rule="evenodd" clip-rule="evenodd" fill="#1D1D1B" width="2.5" height="2.5"/>
				<rect x="287.1" y="4.7" fill-rule="evenodd" clip-rule="evenodd" fill="#1D1D1B" width="2.5" height="5.5"/>
				<polygon fill-rule="evenodd" clip-rule="evenodd" fill="#1D1D1B" points="279.6,4.7 279.6,7.2 282.6,7.2 282.6,10.2 285.1,10.2 
					285.1,4.7 				"/>
			</g>
			<g>
				<rect x="287.1" y="541.3" fill-rule="evenodd" clip-rule="evenodd" fill="#1D1D1B" width="2.5" height="5.5"/>
				<rect x="287.1" y="548.8" fill-rule="evenodd" clip-rule="evenodd" fill="#1D1D1B" width="2.5" height="2.5"/>
				<rect x="279.6" y="548.8" fill-rule="evenodd" clip-rule="evenodd" fill="#1D1D1B" width="5.5" height="2.5"/>
				<polygon fill-rule="evenodd" clip-rule="evenodd" fill="#1D1D1B" points="285.1,541.3 282.5,541.3 282.5,544.3 279.6,544.3 
					279.6,546.8 285.1,546.8 				"/>
			</g>
			<g>
				<rect x="271.4" y="548.8" fill-rule="evenodd" clip-rule="evenodd" fill="#1D1D1B" width="5.5" height="2.5"/>
				<rect x="266.9" y="548.8" fill-rule="evenodd" clip-rule="evenodd" fill="#1D1D1B" width="2.5" height="2.5"/>
				<rect x="266.9" y="541.3" fill-rule="evenodd" clip-rule="evenodd" fill="#1D1D1B" width="2.5" height="5.5"/>
				<polygon fill-rule="evenodd" clip-rule="evenodd" fill="#1D1D1B" points="276.9,546.8 276.9,544.3 273.9,544.3 273.9,541.3 
					271.4,541.3 271.4,546.8 				"/>
			</g>
		</g>
	</g>
</g>
<path fill="#2B422A" d="M277.2,166.6c47.4,0.3,86.5,0,98.8,20.2c21.5,35.5-9.4,69.4,0.1,125.5c9.5,56,34.9,36,48.9,83.1
	c8.2,27.8,3.3,50.4-9.2,66.6c-1.5,1.9-3,3.7-4.7,5.4c-8.3,8.5-18.9,14.7-30.7,18.4c-19.3,6-62.8,9.3-104.3,9.7
	c-41.5-0.4-83.5-3.7-102.8-9.7c-34.7-10.8-58.7-43.3-44.7-90.4c14-47.1,39.3-27.1,48.8-83.1c9.5-56.1-22.1-90-0.6-125.5
	c12.3-20.2,52.7-19.9,99.7-20.2v0.1"/>
<path fill="none" stroke="#000000" stroke-width="0.5" stroke-linecap="round" stroke-linejoin="round" d="M277.9,495.6"/>
<path fill="#292A2B" d="M321.6,86.3c0.1-34.4-40.7-45.4-67-32.1c-2.7,1.4-5.3,3-7.6,4.9c-8,6.4-13.4,15.8-14,28.3
	c-2.7,61.6,2.7,252.8,2.6,297.7c-0.1,49.6,86.8,46.3,86.8,1.3C322.3,345.8,321.2,205.8,321.6,86.3z M277.3,68
	c43.2,0,30.3,61.7,30.3,61.7H245C245,129.7,234.1,68,277.3,68z M277.8,409.3c-43.1-1.9-30.5-61.6-30.5-61.6h63
	C309.8,348.7,319.9,411.2,277.8,409.3z"/>
<g>
	<g>
		<path fill="none" stroke="#000000" stroke-miterlimit="10" d="M206.3,71.8"/>
	</g>
</g>
<path fill="none" d="M281.3,556.3"/>
<path fill="none" d="M276.2,1.1"/>
</svg>
